<svg xmlns="http://www.w3.org/2000/svg" display="none">
    <defs>
        <svg width="20" height="20" viewBox="0 0 20 20" fill="none" id="icon-location">
            <path d="M10.0002 18.3334C10.0002 18.3334 3.3335 13.3334 3.3335 8.33335C3.3335 4.16669 6.66683 1.66669 10.0002 1.66669C13.3335 1.66669 16.6668 4.16669 16.6668 8.33335C16.6668 13.3334 10.0002 18.3334 10.0002 18.3334ZM10.0002 10.8334C11.381 10.8334 12.5002 9.71419 12.5002 8.33335C12.5002 6.95252 11.381 5.83335 10.0002 5.83335C8.61933 5.83335 7.50016 6.95252 7.50016 8.33335C7.50016 9.71419 8.61933 10.8334 10.0002 10.8334Z" stroke="white"/>
        </svg>
        <svg width="21" height="21" viewBox="0 0 21 21" fill="none" id="icon-phone">
            <path d="M17.8091 4.93805L15.729 2.85992C15.4751 2.60602 15.1353 2.46344 14.7759 2.46344C14.4165 2.46344 14.0767 2.60406 13.8228 2.85992L11.5825 5.09625C11.3286 5.35016 11.186 5.69196 11.186 6.05133C11.186 6.41266 11.3267 6.75055 11.5825 7.00641L13.3325 8.75836C12.9339 9.68724 12.361 10.5312 11.645 11.2447C10.9282 11.9654 10.0903 12.5338 9.16064 12.9361L7.41064 11.1841C7.15674 10.9302 6.81689 10.7877 6.45752 10.7877C6.28026 10.787 6.10465 10.8217 5.94099 10.8898C5.77732 10.9579 5.62889 11.058 5.50439 11.1841L3.26221 13.4205C3.0083 13.6744 2.86572 14.0162 2.86572 14.3755C2.86572 14.7369 3.00635 15.0748 3.26221 15.3306L5.34033 17.4088C5.77393 17.8423 6.37158 18.0904 6.98486 18.0904C7.11182 18.0904 7.23486 18.0806 7.35986 18.0591C9.9458 17.6334 12.5122 16.2564 14.5845 14.1861C16.6548 12.1119 18.0298 9.54547 18.4595 6.95758C18.5825 6.22321 18.3364 5.46735 17.8091 4.93805ZM17.0747 6.72516C16.6938 9.02789 15.4556 11.3248 13.5903 13.19C11.7251 15.0552 9.43018 16.2935 7.12744 16.6744C6.83838 16.7232 6.5415 16.6255 6.33057 16.4166L4.28955 14.3755L6.45361 12.2095L8.79346 14.5533L8.81104 14.5709L9.23291 14.4146C10.5121 13.9443 11.6737 13.2015 12.6372 12.2376C13.6007 11.2738 14.3431 10.1119 14.813 8.83258L14.9692 8.4107L12.6099 6.05328L14.7739 3.88727L16.8149 5.92828C17.0259 6.13922 17.1235 6.4361 17.0747 6.72516Z" fill="white"/>
        </svg>
        <svg width="21" height="21" viewBox="0 0 21 21" fill="none" id="icon-email">
            <path d="M18.1743 3.23303H1.92432C1.57861 3.23303 1.29932 3.51233 1.29932 3.85803V16.358C1.29932 16.7037 1.57861 16.983 1.92432 16.983H18.1743C18.52 16.983 18.7993 16.7037 18.7993 16.358V3.85803C18.7993 3.51233 18.52 3.23303 18.1743 3.23303ZM17.3931 5.39709V15.5768H2.70557V5.39709L2.1665 4.97717L2.93408 3.99084L3.77002 4.64124H16.3306L17.1665 3.99084L17.9341 4.97717L17.3931 5.39709ZM16.3306 4.63928L10.0493 9.52209L3.76807 4.63928L2.93213 3.98889L2.16455 4.97522L2.70361 5.39514L9.37549 10.5826C9.56736 10.7317 9.80341 10.8126 10.0464 10.8126C10.2894 10.8126 10.5254 10.7317 10.7173 10.5826L17.3931 5.39709L17.9321 4.97717L17.1646 3.99084L16.3306 4.63928Z" fill="white"/>
        </svg>
        <svg width="26" height="18" viewBox="0 0 26 18" fill="none" id="icon-email-filled">
            <path d="M26 0H0V17.6236H26V0ZM23.4 4.40591L13 9.9133L2.6 4.40591V2.20295L13 7.71034L23.4 2.20295V4.40591Z" fill="white"/>
        </svg>
        <svg width="19" height="24" viewBox="0 0 19 24" fill="none" id="icon-location-filled">
            <path d="M9.5 0C6.98136 0.00294898 4.56672 0.997261 2.78577 2.76482C1.00482 4.53238 0.00298142 6.92886 1.0107e-05 9.42857C-0.00300648 11.4713 0.669311 13.4587 1.91383 15.0857C1.91383 15.0857 2.17292 15.4243 2.21523 15.4731L9.5 24L16.7882 15.4689C16.8262 15.4234 17.0862 15.0857 17.0862 15.0857L17.087 15.0831C18.3309 13.4568 19.0029 11.4704 19 9.42857C18.997 6.92886 17.9952 4.53238 16.2142 2.76482C14.4333 0.997261 12.0186 0.00294898 9.5 0ZM9.5 12.8571C8.81676 12.8571 8.14886 12.6561 7.58076 12.2793C7.01266 11.9026 6.56989 11.3671 6.30842 10.7406C6.04695 10.1141 5.97854 9.42477 6.11184 8.75969C6.24513 8.09461 6.57414 7.4837 7.05727 7.00421C7.5404 6.52471 8.15594 6.19817 8.82605 6.06588C9.49617 5.93359 10.1908 6.00148 10.822 6.26098C11.4532 6.52048 11.9928 6.95993 12.3723 7.52376C12.7519 8.08759 12.9545 8.75046 12.9545 9.42857C12.9534 10.3375 12.5891 11.2089 11.9415 11.8517C11.2939 12.4944 10.4159 12.856 9.5 12.8571Z" fill="white"/>
        </svg>
        <svg width="23" height="23" viewBox="0 0 23 23" fill="none" id="icon-phone-filled">
            <path d="M12.912 6.2161C15.6273 6.2161 16.7855 7.37419 16.7855 10.0893H19.3678C19.3678 5.92561 17.076 3.63396 12.912 3.63396V6.2161ZM17.3303 13.2434C17.0822 13.0179 16.7562 12.8977 16.4211 12.908C16.086 12.9184 15.768 13.0585 15.5343 13.2989L12.4446 16.4762C11.7009 16.3342 10.2057 15.8681 8.66664 14.3331C7.12758 12.7928 6.66147 11.2939 6.52332 10.5554L9.69828 7.46456C9.93897 7.23105 10.0794 6.91305 10.0897 6.57787C10.1001 6.24269 9.97961 5.91663 9.7538 5.66869L4.98296 0.423073C4.75706 0.174357 4.4431 0.0234927 4.10775 0.00251989C3.7724 -0.018453 3.44208 0.0921183 3.18695 0.31075L0.385131 2.71343C0.161903 2.93745 0.0286657 3.2356 0.0106933 3.55133C-0.00867409 3.8741 -0.377946 11.5198 5.55107 17.451C10.7235 22.6217 17.2025 23 18.9869 23C19.2477 23 19.4078 22.9923 19.4504 22.9897C19.7661 22.972 20.0642 22.8382 20.2871 22.614L22.6887 19.8111C22.9075 19.5561 23.0183 19.2259 22.9975 18.8906C22.9768 18.5553 22.8262 18.2412 22.5776 18.0152L17.3303 13.2434Z" fill="white"/>
        </svg>
        <svg width="10" height="10" viewBox="0 0 10 10" fill="none" id="icon-linkedin">
            <path d="M1.39866 2.48604C1.99927 2.48604 2.48616 1.99914 2.48616 1.39854C2.48616 0.797925 1.99927 0.311035 1.39866 0.311035C0.798048 0.311035 0.311157 0.797925 0.311157 1.39854C0.311157 1.99914 0.798048 2.48604 1.39866 2.48604Z" fill="white"/>
            <path d="M2.30503 3.21118H0.492529C0.392479 3.21118 0.311279 3.29238 0.311279 3.39243V8.82993C0.311279 8.92998 0.392479 9.01118 0.492529 9.01118H2.30503C2.40508 9.01118 2.48628 8.92998 2.48628 8.82993V3.39243C2.48628 3.29238 2.40508 3.21118 2.30503 3.21118Z" fill="white"/>
            <path d="M7.70509 2.96139C6.93043 2.69604 5.96147 2.92913 5.38038 3.34709C5.36044 3.26915 5.28939 3.21115 5.20493 3.21115H3.39243C3.29238 3.21115 3.21118 3.29235 3.21118 3.3924V8.8299C3.21118 8.92995 3.29238 9.01115 3.39243 9.01115H5.20493C5.30498 9.01115 5.38618 8.92995 5.38618 8.8299V4.92215C5.67908 4.66985 6.05644 4.58938 6.36529 4.7206C6.66472 4.84712 6.83618 5.15597 6.83618 5.5674V8.8299C6.83618 8.92995 6.91738 9.01115 7.01743 9.01115H8.82993C8.92998 9.01115 9.01118 8.92995 9.01118 8.8299V5.20237C8.99052 3.71285 8.28981 3.16149 7.70509 2.96139Z" fill="white"/>
        </svg>
        <svg width="21" height="21" viewBox="0 0 21 21" fill="none" id="icon-facebook">
            <path d="M11.4292 18.131V11.301H13.7333L14.0758 8.62684H11.4292V6.9235C11.4292 6.15184 11.6442 5.6235 12.7517 5.6235H14.155V3.23934C13.4722 3.16616 12.7859 3.13083 12.0992 3.1335C10.0625 3.1335 8.66417 4.37684 8.66417 6.65934V8.62184H6.375V11.296H8.66917V18.131H11.4292Z" fill="white"/>
        </svg>
        <svg width="20" height="20" viewBox="0 0 20 20" fill="none" id="icon-instagram">
            <path d="M9.99933 6.14752C8.97736 6.14752 7.99725 6.5535 7.27461 7.27614C6.55197 7.99878 6.146 8.97889 6.146 10.0009C6.146 11.0228 6.55197 12.0029 7.27461 12.7256C7.99725 13.4482 8.97736 13.8542 9.99933 13.8542C11.0213 13.8542 12.0014 13.4482 12.724 12.7256C13.4467 12.0029 13.8527 11.0228 13.8527 10.0009C13.8527 8.97889 13.4467 7.99878 12.724 7.27614C12.0014 6.5535 11.0213 6.14752 9.99933 6.14752ZM9.99933 12.5034C9.3354 12.5034 8.69867 12.2396 8.22921 11.7701C7.75974 11.3007 7.496 10.6639 7.496 10C7.496 9.3361 7.75974 8.69936 8.22921 8.2299C8.69867 7.76043 9.3354 7.49669 9.99933 7.49669C10.6633 7.49669 11.3 7.76043 11.7695 8.2299C12.2389 8.69936 12.5027 9.3361 12.5027 10C12.5027 10.6639 12.2389 11.3007 11.7695 11.7701C11.3 12.2396 10.6633 12.5034 9.99933 12.5034Z" fill="white"/>
            <path d="M14.0048 6.90415C14.5009 6.90415 14.9031 6.50195 14.9031 6.00582C14.9031 5.50968 14.5009 5.10748 14.0048 5.10748C13.5086 5.10748 13.1064 5.50968 13.1064 6.00582C13.1064 6.50195 13.5086 6.90415 14.0048 6.90415Z" fill="white"/>
            <path d="M17.1106 5.09248C16.9177 4.5943 16.6229 4.14189 16.2451 3.7642C15.8672 3.38651 15.4147 3.09188 14.9165 2.89915C14.3334 2.68028 13.7174 2.56193 13.0948 2.54915C12.2923 2.51415 12.0381 2.50415 10.0031 2.50415C7.96813 2.50415 7.7073 2.50415 6.91146 2.54915C6.28929 2.56128 5.67376 2.67965 5.09146 2.89915C4.59308 3.09165 4.14044 3.38621 3.76258 3.76392C3.38472 4.14164 3.08999 4.59417 2.8973 5.09248C2.67839 5.67549 2.56031 6.29151 2.54813 6.91415C2.5123 7.71582 2.50146 7.96998 2.50146 10.0058C2.50146 12.0408 2.50146 12.3 2.54813 13.0975C2.56063 13.7208 2.67813 14.3358 2.8973 14.92C3.09053 15.4181 3.38554 15.8705 3.76349 16.2481C4.14144 16.6258 4.59402 16.9205 5.0923 17.1133C5.67349 17.341 6.28927 17.4678 6.91313 17.4883C7.71563 17.5233 7.9698 17.5342 10.0048 17.5342C12.0398 17.5342 12.3006 17.5342 13.0965 17.4883C13.719 17.4757 14.335 17.3576 14.9181 17.1392C15.4163 16.946 15.8687 16.6511 16.2464 16.2733C16.6242 15.8955 16.9191 15.4431 17.1123 14.945C17.3315 14.3617 17.449 13.7467 17.4615 13.1233C17.4973 12.3217 17.5081 12.0675 17.5081 10.0317C17.5081 7.99582 17.5081 7.73748 17.4615 6.93998C17.4518 6.30854 17.3331 5.68352 17.1106 5.09248ZM16.0956 13.0358C16.0903 13.5161 16.0026 13.9918 15.8365 14.4425C15.7113 14.7665 15.5197 15.0608 15.274 15.3064C15.0283 15.5519 14.7339 15.7434 14.4098 15.8683C13.9642 16.0337 13.4934 16.1214 13.0181 16.1275C12.2265 16.1642 12.0031 16.1733 9.97313 16.1733C7.94147 16.1733 7.73396 16.1733 6.9273 16.1275C6.45224 16.1217 5.98174 16.034 5.53646 15.8683C5.2112 15.7441 4.91563 15.5531 4.66887 15.3075C4.42211 15.0618 4.22966 14.7672 4.10396 14.4425C3.94017 13.9967 3.85256 13.5265 3.8448 13.0517C3.80896 12.26 3.80063 12.0367 3.80063 10.0067C3.80063 7.97582 3.80063 7.76832 3.8448 6.96082C3.85018 6.48084 3.93784 6.00533 4.10396 5.55498C4.35813 4.89748 4.87896 4.37998 5.53646 4.12832C5.98196 3.96343 6.45232 3.87579 6.9273 3.86915C7.7198 3.83332 7.9423 3.82332 9.97313 3.82332C12.004 3.82332 12.2123 3.82332 13.0181 3.86915C13.4935 3.87487 13.9643 3.96254 14.4098 4.12832C14.7339 4.25354 15.0282 4.44515 15.2739 4.69084C15.5196 4.93653 15.7112 5.23088 15.8365 5.55498C16.0003 6.00077 16.0879 6.47095 16.0956 6.94582C16.1315 7.73832 16.1406 7.96082 16.1406 9.99165C16.1406 12.0217 16.1406 12.24 16.1048 13.0367H16.0956V13.0358Z" fill="white"/>
        </svg>
        <svg width="11" height="9" viewBox="0 0 11 9" fill="none" id="icon-youtube">
            <path fill-rule="evenodd" clip-rule="evenodd" d="M9.19371 1.17666C9.63523 1.29352 9.98298 1.63603 10.1015 2.0701C10.3215 2.86236 10.3112 4.51418 10.3112 4.51418C10.3112 4.51418 10.3096 6.15688 10.0963 6.94864C9.97628 7.38221 9.62698 7.72421 9.18598 7.84057C8.37919 8.04799 5.15152 8.04445 5.15152 8.04445C5.15152 8.04445 1.93261 8.04091 1.11757 7.82337C0.675539 7.7065 0.327785 7.364 0.209291 6.93043C-0.00193719 6.14626 0.000122824 4.49495 0.000122824 4.49495C0.000122824 4.49495 0.00218435 2.85174 0.214958 2.05948C0.334483 1.62591 0.692025 1.27581 1.12479 1.15996C1.93209 0.952029 5.15925 0.95557 5.15925 0.95557C5.15925 0.95557 8.38692 0.959112 9.19371 1.17666ZM4.12928 2.98172L4.12671 6.01721L6.81188 4.50199L4.12928 2.98172Z" fill="white"/>
        </svg>

        <svg width="90" height="90" viewBox="0 0 90 90" fill="none" id="icon-goals">
            <path d="M39.7374 4.25743L38.0179 9.99212C40.3017 9.52595 42.6626 9.28337 45.0826 9.28337C46.9239 9.28337 48.7329 9.42751 50.4984 9.70103L48.8452 4.25708H39.7374V4.25743ZM45.0822 12.8431C27.5697 12.8431 13.4082 26.9988 13.4082 44.5112C13.4082 62.0232 27.5697 76.179 45.0822 76.179C62.5943 76.179 76.7501 62.0234 76.7501 44.511C76.7501 26.9984 62.5944 12.8428 45.0821 12.8428L45.0822 12.8431ZM45.0822 20.1709C58.5263 20.1709 69.4221 31.0667 69.4221 44.5113C69.4221 57.9554 58.5263 68.857 45.0821 68.857C31.6374 68.857 20.7363 57.9554 20.7363 44.5113C20.7363 31.0667 31.6374 20.1709 45.0821 20.1709H45.0822ZM45.0764 27.0155C35.4155 27.0155 27.5809 34.8448 27.5809 44.5057C27.5809 54.1666 35.4155 61.9959 45.0764 61.9959C54.7374 61.9959 62.5667 54.1666 62.5667 44.5057C62.5667 34.8448 54.7374 27.0155 45.0764 27.0155ZM45.0821 33.9917C50.892 33.9917 55.6012 38.7009 55.6012 44.5112C55.6012 50.3211 50.892 55.0304 45.0819 55.0304C39.2714 55.0304 34.5622 50.3213 34.5622 44.511C34.5622 38.7005 39.2714 33.9914 45.0817 33.9914L45.0821 33.9917ZM45.0821 39.4244C42.2708 39.4244 39.9897 41.7002 39.9897 44.5115C39.9897 47.3223 42.2708 49.6035 45.0821 49.6035C47.8928 49.6035 50.1685 47.3224 50.1685 44.5112C50.1685 41.7004 47.893 39.4246 45.0819 39.4246L45.0821 39.4244ZM20.1979 69.4336L15.3035 85.7593H23.5434L27.1082 74.8058C24.5858 73.3047 22.2637 71.4953 20.1979 69.4336ZM68.9224 70.4334C66.8162 72.3716 64.4709 74.0537 61.9403 75.4376L65.3241 85.7595H73.5695L68.9226 70.4334H68.9224ZM39.9132 79.3596V85.7593H49.07V79.5138C47.7604 79.6614 46.4306 79.7388 45.0821 79.7388C43.326 79.7388 41.5998 79.6087 39.9127 79.3598L39.9132 79.3596Z" fill="#88d707"/>
        </svg>
        <svg width="90" height="90" viewBox="0 0 90 90" fill="none" id="icon-values">
            <path d="M66.6057 10H45.8344L59.0513 27.5406L66.6057 10ZM22.5513 10L30.1057 27.5406L43.3226 10H22.5513ZM44.5785 16.6672L34.5312 30H54.6258L44.5785 16.6672ZM70.7878 12.9781L63.458 30H81L70.7878 12.9781ZM18.3691 12.9781L8 30H25.699L18.3691 12.9781ZM27.4164 35H8.15699L43.1342 80H43.2174L27.4164 35ZM61.7406 35L45.9396 80H46.0228L81 35H61.7406ZM56.0999 35H33.0571L44.5785 67.5L56.0999 35Z" fill="#88d707"/>
        </svg>
        <svg width="90" height="90" viewBox="0 0 90 90" fill="none" id="icon-mission">
            <g clip-path="url(#clip0_409_1734)">
                <path d="M65.0898 52.0543C76.4806 39.2563 81.2749 28.9271 83.0672 21.353C84.1041 16.9734 84.1238 13.5517 83.8572 11.157C83.7536 10.2177 83.5753 9.28816 83.3239 8.3772C83.2187 7.99121 83.0901 7.61197 82.9388 7.24157C82.5784 6.43182 82.1093 6.08126 81.2008 5.78007C80.9407 5.6951 80.6771 5.62097 80.4108 5.55789C79.485 5.33721 78.5444 5.18375 77.5965 5.0987C75.1771 4.88145 71.7208 4.95057 67.3264 6.02695C59.7424 7.87357 49.4626 12.658 36.9065 23.8217L25.0565 24.9968H25.0269C22.1793 25.3135 19.525 26.5919 17.5021 28.6209L5.74101 40.4018C5.3685 40.777 5.12297 41.2594 5.03896 41.7814C4.95495 42.3033 5.03669 42.8385 5.27268 43.3116C5.50868 43.7846 5.88704 44.1718 6.35455 44.4187C6.82207 44.6655 7.3552 44.7595 7.87895 44.6876L17.2404 43.3495C18.6229 43.152 20.1634 43.4137 21.9558 44.0013C23.1013 44.3765 24.1134 44.7913 25.1898 45.2258L26.1921 45.6356C27.1599 49.6646 29.4509 53.4368 32.4874 56.4734C35.5141 59.505 39.2814 61.8059 43.3055 62.7786L43.7104 63.776C44.1498 64.8523 44.5646 65.8694 44.9398 67.0199C45.5224 68.8122 45.7891 70.3576 45.5916 71.7401L44.2535 81.1214C44.1829 81.6441 44.2776 82.1759 44.5243 82.6421C44.771 83.1084 45.1573 83.4858 45.6292 83.7215C46.1012 83.9572 46.635 84.0393 47.1559 83.9565C47.6769 83.8736 48.1588 83.6298 48.5343 83.2593L60.2954 71.4784C62.3198 69.4541 63.5937 66.7928 63.9097 63.9438L65.0898 52.0543ZM65.6329 33.7905C61.6977 37.7405 56.1035 38.5354 53.1509 35.5779C50.1983 32.6154 50.9981 27.0212 54.9333 23.0761C58.8734 19.1311 64.4627 18.3361 67.4153 21.2937C70.3679 24.2513 69.573 29.8454 65.6378 33.7905H65.6329Z" fill="#88d707"/>
                <path d="M30.6996 58.2608C33.3203 60.9164 36.3224 63.1663 39.6068 64.9363C34.0867 69.9083 15.2699 74.9495 14.6527 74.3323C14.0306 73.7053 18.2917 53.6492 23.7328 48.7561C25.4412 52.163 27.8655 55.4217 30.6996 58.2608Z" fill="#88d707"/>
            </g>
            <defs>
                <clipPath id="clip0_409_1734">
                    <rect width="79" height="79" fill="white" transform="translate(5 5)"/>
                </clipPath>
            </defs>
        </svg>
        <svg width="90" height="90" viewBox="0 0 90 90" fill="none" id="icon-vision">
            <g clip-path="url(#clip0_409_1744)">
                <path d="M36.2363 63.75H53.76M45 11.25V15M68.865 21.135L66.2137 23.7862M78.75 45H75M15 45H11.25M23.7862 23.7862L21.135 21.135M31.74 58.26C29.1183 55.6376 27.333 52.2966 26.6099 48.6596C25.8868 45.0226 26.2584 41.2529 27.6777 37.827C29.097 34.4012 31.5003 31.4732 34.5836 29.4131C37.6669 27.353 41.2918 26.2535 45 26.2535C48.7082 26.2535 52.3331 27.353 55.4164 29.4131C58.4997 31.4732 60.903 34.4012 62.3223 37.827C63.7416 41.2529 64.1132 45.0226 63.3901 48.6596C62.667 52.2966 60.8817 55.6376 58.26 58.26L56.205 60.3113C55.0302 61.4863 54.0983 62.8813 53.4626 64.4165C52.8269 65.9517 52.4998 67.5971 52.5 69.2587V71.25C52.5 73.2391 51.7098 75.1468 50.3033 76.5533C48.8968 77.9598 46.9891 78.75 45 78.75C43.0109 78.75 41.1032 77.9598 39.6967 76.5533C38.2902 75.1468 37.5 73.2391 37.5 71.25V69.2587C37.5 65.9025 36.165 62.6813 33.795 60.3113L31.74 58.26Z" stroke="#88d707" stroke-width="7.5" stroke-linecap="round" stroke-linejoin="round"/>
            </g>
            <defs>
                <clipPath id="clip0_409_1744">
                    <rect width="90" height="90" fill="white"/>
                </clipPath>
            </defs>
        </svg>
        <svg width="16" height="16" viewBox="0 0 16 16" fill="none" id="icon-first">
            <path d="M11.727 12L12.667 11.06L9.61366 8L12.667 4.94L11.727 4L7.72699 8L11.727 12Z" fill="#333333"/>
            <path d="M7.33344 12L8.27344 11.06L5.2201 8L8.27344 4.94L7.33344 4L3.33344 8L7.33344 12Z" fill="#333333"/>
        </svg>
        <svg width="16" height="16" viewBox="0 0 16 16" fill="none" id="icon-previous">
            <path d="M10.06 12L11 11.06L7.94667 8L11 4.94L10.06 4L6.06 8L10.06 12Z" fill="black"/>
        </svg>
        <svg width="16" height="16" viewBox="0 0 16 16" fill="none" id="icon-next">
            <path d="M6.94 4L6 4.94L9.05333 8L6 11.06L6.94 12L10.94 8L6.94 4Z" fill="black"/>
        </svg>
        <svg width="16" height="16" viewBox="0 0 16 16" fill="none" id="icon-last">
            <path d="M4.27301 4L3.33301 4.94L6.38634 8L3.33301 11.06L4.27301 12L8.27301 8L4.27301 4Z" fill="black"/>
            <path d="M8.66656 4L7.72656 4.94L10.7799 8L7.72656 11.06L8.66656 12L12.6666 8L8.66656 4Z" fill="black"/>
        </svg>
        <svg width="62" height="80" viewBox="0 0 62 80" fill="none" id="icon-love">
            <path fill-rule="evenodd" clip-rule="evenodd" d="M30.615 12.2929L26.9565 8.54947C21.1907 2.65247 10.4092 4.6029 6.49557 12.2065C4.70971 15.6858 4.19436 20.8768 7.69976 27.7592C11.0215 34.3012 17.9608 42.2604 30.615 51.0068C43.264 42.2553 50.2033 34.2961 53.5301 27.7592C57.0355 20.8768 56.5253 15.6858 54.7343 12.2116C50.8207 4.6029 40.0392 2.65247 34.2734 8.54947L30.615 12.2929ZM28.1147 55.4664C-26.8899 17.6769 12.8073 -11.351 29.9465 4.35401C30.1778 4.56396 30.4024 4.78236 30.6201 5.00924C30.8412 4.78236 31.0657 4.56396 31.2936 4.35401C48.4379 -11.351 88.1198 17.6819 33.1152 55.4664L34.3142 57.8435C34.3893 57.9929 34.434 58.1556 34.4459 58.3222C34.4578 58.4888 34.4366 58.6561 34.3836 58.8146C34.3305 58.9731 34.2466 59.1196 34.1367 59.2458C34.0267 59.372 33.8929 59.4754 33.7428 59.5501C33.5927 59.6248 33.4293 59.6694 33.2619 59.6812C33.0945 59.6931 32.9264 59.672 32.7672 59.6191C32.608 59.5663 32.4608 59.4828 32.334 59.3733C32.2073 59.2639 32.1034 59.1307 32.0283 58.9812L31.9875 58.8949C32.0283 59.4536 32.0896 59.9209 32.1763 60.3679C32.4518 61.7393 32.9978 62.8465 34.3142 65.4623C35.7838 68.3982 35.5133 71.3035 34.702 73.7364C33.9009 76.1186 32.5488 78.1401 31.7018 79.3998L31.6814 79.4353C31.5882 79.5741 31.4686 79.6932 31.3292 79.7859C31.1898 79.8786 31.0334 79.9431 30.869 79.9756C30.7046 80.0081 30.5354 80.0081 30.3709 79.9756C30.2065 79.943 30.0502 79.8785 29.9108 79.7858C29.7714 79.6931 29.6518 79.574 29.5587 79.4352C29.4655 79.2965 29.4008 79.1408 29.3681 78.9771C29.3354 78.8135 29.3354 78.645 29.3681 78.4814C29.4008 78.3177 29.4656 78.1621 29.5587 78.0233C30.416 76.7433 31.5997 74.9758 32.2784 72.9288C32.957 70.9175 33.1101 68.7435 32.0283 66.6001L31.962 66.4579C30.7374 64.0198 30.0231 62.6078 29.6761 60.8606C29.5299 60.1064 29.4412 59.3424 29.4108 58.5749L29.2067 58.9812C29.1324 59.1316 29.029 59.2659 28.9024 59.3763C28.7757 59.4868 28.6284 59.5711 28.4688 59.6246C28.3093 59.6781 28.1407 59.6996 27.9727 59.6879C27.8048 59.6762 27.6409 59.6315 27.4903 59.5564C27.3398 59.4813 27.2058 59.3773 27.0958 59.2504C26.9859 59.1235 26.9023 58.9762 26.8498 58.817C26.7973 58.6577 26.777 58.4897 26.7901 58.3227C26.8031 58.1556 26.8493 57.9927 26.9259 57.8435L28.1249 55.4664H28.1147ZM20.4763 10.4643C17.1648 9.55008 12.9094 10.8859 11.0368 14.5176C10.3683 15.828 9.78667 18.0172 10.6286 21.2984C10.95 22.5377 12.741 22.304 13.1135 21.08C14.185 17.5397 16.3127 13.7303 20.0477 12.4859C21.155 12.1151 21.5989 10.7742 20.4763 10.4643Z" fill="#DFA100"/>
        </svg>
        <svg width="25" height="19" viewBox="0 0 25 19" fill="none" id="icon-hamburger">
            <path fill-rule="evenodd" clip-rule="evenodd" d="M1.58333 0.791748C0.84696 0.791748 0.25 1.36739 0.25 2.07746C0.25 2.78754 0.84696 3.36318 1.58333 3.36318H22.9167C23.6531 3.36318 24.25 2.78754 24.25 2.07746C24.25 1.36739 23.6531 0.791748 22.9167 0.791748H1.58333ZM5.58333 9.79175C5.58333 9.08165 6.18029 8.50603 6.91667 8.50603H22.9167C23.6531 8.50603 24.25 9.08165 24.25 9.79175C24.25 10.5018 23.6531 11.0775 22.9167 11.0775H6.91667C6.18029 11.0775 5.58333 10.5018 5.58333 9.79175ZM0.25 17.506C0.25 16.7959 0.846933 16.2203 1.58333 16.2203H22.9167C23.6531 16.2203 24.25 16.7959 24.25 17.506C24.25 18.2161 23.6531 18.7917 22.9167 18.7917H1.58333C0.846933 18.7917 0.25 18.2161 0.25 17.506Z" fill="#ffffff"/>
        </svg>
        <svg width="21" height="21" viewBox="0 0 21 21" fill="none" id="icon-search">
            <path d="M16.6451 14.8549C16.2353 14.4623 15.8365 14.0585 15.449 13.6439C15.1235 13.3131 14.9275 13.0725 14.9275 13.0725L12.4775 11.9026C13.4584 10.7902 13.9997 9.35812 14 7.875C14 4.49837 11.2525 1.75 7.875 1.75C4.4975 1.75 1.75 4.49837 1.75 7.875C1.75 11.2516 4.4975 14 7.875 14C9.41762 14 10.8237 13.4225 11.9026 12.4784L13.0725 14.9284C13.0725 14.9284 13.3131 15.1244 13.6439 15.4499C13.9825 15.7675 14.4279 16.1971 14.8549 16.646L16.0431 17.864L16.5716 18.4293L18.4275 16.5734L17.8622 16.0449C17.5306 15.7194 17.0879 15.2871 16.6451 14.8549ZM7.875 12.25C5.46262 12.25 3.5 10.2874 3.5 7.875C3.5 5.46263 5.46262 3.5 7.875 3.5C10.2874 3.5 12.25 5.46263 12.25 7.875C12.25 10.2874 10.2874 12.25 7.875 12.25Z" fill="white"/>
        </svg>
        <svg width="80" height="80" viewBox="0 0 80 80" fill="none" id="icon-premium">
            <path d="M37.5145 5.56388C37.663 5.62996 37.8114 5.69603 37.9644 5.76411C38.097 5.82378 38.2295 5.88345 38.3661 5.94493C40.0855 6.61132 41.5637 6.00815 43.1646 5.31657C43.6487 5.10261 44.1318 4.88689 44.6123 4.66487C46.254 3.91265 47.9911 3.27757 49.8053 3.77559C52.0493 4.61074 53.1743 6.5248 54.248 8.55464C55.2915 10.5157 55.9351 11.6514 58.125 12.3437C58.8493 12.5285 59.5779 12.6745 60.3125 12.8125C62.371 13.199 64.3692 13.6522 65.7812 15.3125C67.0149 17.2266 66.829 19.3989 66.5625 21.5722C66.1887 24.1687 66.1887 24.1687 67.0312 26.5625C67.4734 27.1099 67.95 27.6178 68.4375 28.125C70.1692 29.955 71.8675 31.8895 71.875 34.5312C71.6867 36.9621 69.7275 38.813 68.1366 40.4821C66.8543 41.8385 66.3256 42.7181 66.3521 44.62C66.3832 45.5226 66.4895 46.4122 66.606 47.3071C66.8459 49.2016 66.9763 51.1784 65.8697 52.8234C65.4368 53.3568 64.9361 53.8223 64.375 54.2187C64.2718 54.2187 64.1687 54.2187 64.0625 54.2187C65.1821 56.262 66.3449 58.278 67.5235 60.2877C67.8183 60.7912 68.1122 61.2951 68.4057 61.7993C68.5511 62.0489 68.5511 62.0489 68.6995 62.3036C68.8833 62.6194 69.0671 62.9352 69.2509 63.2511C69.3354 63.396 69.4198 63.5409 69.5068 63.6901C69.5881 63.8299 69.6694 63.9698 69.7532 64.1138C69.9216 64.3987 70.0934 64.6816 70.2681 64.9626C70.3533 65.0998 70.4384 65.237 70.5261 65.3784C70.6028 65.4998 70.6795 65.6212 70.7586 65.7463C71.0577 66.3272 71.0482 66.7015 70.9375 67.3437C70.6529 67.7548 70.4556 67.9188 69.9858 68.0826C69.3289 68.1438 68.7767 67.9717 68.1457 67.7972C68.0097 67.761 67.8736 67.7249 67.7335 67.6877C67.2971 67.5713 66.8614 67.4527 66.4257 67.3339C66.1436 67.2582 65.8614 67.1826 65.5792 67.1072C65.0086 66.9546 64.4382 66.8011 63.8679 66.6472C62.3728 66.245 60.8737 65.8574 59.375 65.4687C59.3427 65.5903 59.3105 65.7119 59.2773 65.8371C58.9728 66.9846 58.6672 68.1318 58.3603 69.2786C58.2025 69.8682 58.0452 70.4579 57.8889 71.0478C57.738 71.6175 57.586 72.1868 57.433 72.7559C57.375 72.9728 57.3174 73.1897 57.2602 73.4068C57.1799 73.7116 57.0978 74.0159 57.0158 74.3201C56.9696 74.4933 56.9235 74.6664 56.8759 74.8448C56.4977 75.9698 56.4977 75.9698 55.9375 76.25C55.045 76.3524 55.045 76.3524 54.6875 76.25C53.8396 75.428 53.3257 74.3418 52.7539 73.3203C52.6441 73.1259 52.5343 72.9316 52.4243 72.7373C52.2545 72.4373 52.0847 72.1373 51.9153 71.8372C51.5353 71.1639 51.1519 70.4926 50.7653 69.823C50.6637 69.6468 50.562 69.4706 50.4572 69.2891C50.2581 68.9454 50.0584 68.6022 49.8579 68.2593C49.4532 67.5652 49.054 66.8753 48.7042 66.1517C48.6525 66.0486 48.6009 65.9456 48.5476 65.8394C48.4222 65.585 48.3039 65.3271 48.1866 65.0689C47.6695 64.5417 47.1675 64.496 46.4574 64.3462C45.5791 64.1308 44.7826 63.739 43.9648 63.3593C41.3363 62.0817 41.3363 62.0817 38.516 62.3189C38.1127 62.4818 37.7187 62.6584 37.3242 62.8417C37.0373 62.97 36.7502 63.0977 36.463 63.225C36.2517 63.3192 36.2517 63.3192 36.0361 63.4152C34.944 63.8894 33.8073 64.356 32.6543 64.652C32.0897 64.8838 31.9752 65.064 31.6943 65.5969C31.5677 65.8308 31.5677 65.8308 31.4385 66.0694C31.3065 66.3231 31.3065 66.3231 31.1718 66.582C30.9787 66.94 30.7852 67.2979 30.5914 67.6556C30.5424 67.747 30.4933 67.8384 30.4428 67.9325C29.9487 68.8524 29.4256 69.7542 28.8964 70.6542C28.8072 70.8064 28.7179 70.9585 28.6259 71.1152C28.4461 71.4214 28.2661 71.7274 28.0861 72.0334C27.8023 72.5173 27.521 73.0026 27.24 73.4881C27.0565 73.8033 26.873 74.1184 26.6894 74.4335C26.6049 74.5804 26.5204 74.7273 26.4333 74.8786C26.3545 75.0133 26.2757 75.148 26.1944 75.2868C26.1257 75.4053 26.057 75.5238 25.9862 75.6459C25.7812 75.9375 25.7812 75.9375 25.3125 76.25C24.4227 76.3488 24.4227 76.3488 24.0625 76.25C23.2888 75.5299 23.1359 74.5478 22.8802 73.562C22.8302 73.3757 22.7802 73.1894 22.7286 72.9974C22.5962 72.503 22.4654 72.0083 22.3354 71.5133C22.1526 70.8187 21.9669 70.1249 21.7814 69.4311C21.683 69.0624 21.5852 68.6935 21.4881 68.3245C21.2325 67.3592 20.9524 66.4122 20.625 65.4687C20.4519 65.5152 20.4519 65.5152 20.2754 65.5626C19.1859 65.855 18.0962 66.147 17.0065 66.4385C16.4463 66.5884 15.8862 66.7384 15.3261 66.8888C14.7852 67.0341 14.2442 67.1789 13.7031 67.3234C13.4971 67.3785 13.2912 67.4338 13.0853 67.4892C12.796 67.567 12.5065 67.6443 12.217 67.7215C12.0525 67.7655 11.8881 67.8096 11.7186 67.855C10.4296 68.1677 10.4296 68.1677 9.80465 67.9394C9.18789 67.5329 9.18789 67.5329 9.06246 67.0312C9.09281 65.9343 9.6149 65.1671 10.1757 64.248C10.3763 63.9122 10.5767 63.5763 10.7769 63.2403C10.8809 63.067 10.9849 62.8937 11.092 62.7152C11.6004 61.8613 12.0936 60.9988 12.5879 60.1367C13.434 58.6649 14.2916 57.2004 15.1645 55.7442C15.2831 55.5453 15.2831 55.5453 15.404 55.3424C15.4734 55.2267 15.5427 55.111 15.6142 54.9918C15.8025 54.6701 15.8025 54.6701 15.9375 54.2187C15.8311 54.1929 15.7248 54.1671 15.6152 54.1406C14.5667 53.6052 13.9323 52.6102 13.5498 51.5203C13.2004 50.1931 13.2777 48.9158 13.4277 47.5683C13.9095 44.4778 13.9095 44.4778 13.0053 41.6375C12.3468 40.9064 11.6829 40.182 11.0028 39.4708C9.35732 37.7433 8.21525 36.1382 8.23788 33.6938C8.42106 31.2893 10.362 29.5526 11.9238 27.8985C12.231 27.5651 12.5247 27.2253 12.8125 26.875C12.9363 26.7317 12.9363 26.7317 13.0627 26.5856C14.2248 24.9561 13.6039 22.2878 13.3836 20.4288C13.1673 18.4996 13.256 16.6167 14.4824 15.0292C16.138 13.2837 18.981 12.9139 21.2391 12.4804C22.751 12.1767 23.7811 11.7522 24.6875 10.4687C24.9648 10.0447 25.2193 9.61076 25.4687 9.16987C25.5704 8.99447 25.5704 8.99447 25.6741 8.81553C25.9564 8.32823 26.235 7.83921 26.5094 7.34736C27.3711 5.83506 28.4957 4.39955 30.1739 3.78535C32.7245 3.08768 35.2505 4.54846 37.5145 5.56388ZM29.5239 7.62202C28.9767 8.43505 28.4882 9.28264 28.0041 10.1342C27.93 10.2641 27.856 10.394 27.7797 10.5278C27.6363 10.7807 27.4945 11.0344 27.3545 11.2891C26.2012 13.3398 24.8784 14.3082 22.6318 14.9603C21.5819 15.2453 20.5112 15.4488 19.4415 15.6445C18.0156 15.9176 16.9367 16.2738 16.0937 17.5C15.6995 18.69 15.9328 20.0555 16.0937 21.2695C16.4367 23.9373 16.4958 26.3351 14.8437 28.5937C14.3597 29.1596 13.8556 29.7027 13.3417 30.2413C11.5677 31.9583 11.5677 31.9583 10.7434 34.2004C10.9225 35.7661 12.2433 36.8955 13.2812 37.9687C15.2004 39.9881 16.3192 41.7393 16.296 44.5793C16.2724 45.5066 16.1692 46.4175 16.0505 47.3367C15.7588 49.4413 15.7588 49.4413 16.4062 51.4062C17.5338 52.5338 19.3011 52.6917 20.8044 53.0267C20.9743 53.0655 21.1442 53.1043 21.3193 53.1442C21.6552 53.2206 21.9917 53.2947 22.3287 53.366C24.2116 53.7935 25.7848 54.6163 26.875 56.25C27.3238 56.9955 27.7481 57.7545 28.1594 58.5213C28.8783 59.8524 29.6884 61.3285 31.0937 62.0312C32.7754 62.149 34.4074 61.1948 35.8929 60.5169C38.57 59.3154 40.6637 59.1319 43.4044 60.1731C44.2103 60.4982 45.0001 60.8617 45.7867 61.2307C47.2825 61.9339 47.2825 61.9339 48.9062 62.0312C50.2791 61.3162 50.9825 60.0241 51.6992 58.7109C53.0028 56.382 54.1377 54.5689 56.7187 53.5937C57.5225 53.3741 58.3343 53.203 59.1504 53.0371C61.7268 52.6583 61.7268 52.6583 63.75 51.25C64.2969 49.9099 64.0766 48.4901 63.9062 47.0898C63.5906 44.4195 63.4775 41.9293 65.2172 39.6893C65.8272 38.9853 66.4734 38.3172 67.1169 37.6441C68.0366 36.6712 68.8466 35.7193 69.2382 34.414C69.1787 32.8669 67.9773 31.7286 66.9824 30.6542C65.1522 28.6745 63.7183 26.9847 63.7207 24.1796C63.7206 24.0565 63.7205 23.9335 63.7204 23.8066C63.7279 22.9513 63.7952 22.1172 63.9062 21.2695C64.2406 19.0771 64.2406 19.0771 63.5937 17.0312C62.6099 15.8879 60.9922 15.734 59.5819 15.4345C59.4255 15.4013 59.269 15.3681 59.1079 15.3338C58.7987 15.2691 58.4892 15.2059 58.1793 15.1446C56.0507 14.7072 54.3546 13.9418 53.1268 12.0843C52.6132 11.2317 52.1235 10.365 51.6447 9.49237C50.6663 7.62967 50.6663 7.62967 49.0625 6.4062C47.8152 6.17728 46.7464 6.70021 45.625 7.18745C45.4956 7.24355 45.3663 7.29964 45.233 7.35743C45.0931 7.41816 44.9531 7.47889 44.8089 7.54146C44.593 7.63483 44.593 7.63483 44.3727 7.73009C44.087 7.8541 43.8019 7.97925 43.5173 8.10569C41.4224 9.02272 39.3829 9.25257 37.2052 8.41517C36.1561 7.98952 35.1212 7.53041 34.0875 7.06904C32.3121 6.28649 30.8142 5.86872 29.5239 7.62202ZM18.5937 55.1562C17.9171 56.3131 17.2418 57.4708 16.5676 58.629C16.4602 58.8134 16.3529 58.9978 16.2455 59.1822C15.8784 59.8124 15.5122 60.4432 15.1464 61.0742C15.0499 61.24 14.9533 61.4059 14.8537 61.5767C14.2932 62.5456 13.7704 63.5245 13.2812 64.5312C14.3313 64.3344 15.3586 64.0921 16.3879 63.8067C16.6762 63.7286 16.9645 63.6506 17.2528 63.5726C17.7001 63.4513 18.1473 63.3293 18.5939 63.2053C19.0299 63.0847 19.4666 62.967 19.9035 62.8497C20.0357 62.8123 20.1679 62.7748 20.3041 62.7363C21.1538 62.5114 21.7909 62.4933 22.6562 62.6562C22.9872 63.7325 23.2876 64.8139 23.5699 65.9039C23.6523 66.2185 23.7349 66.5332 23.8174 66.8478C23.9459 67.3383 24.074 67.829 24.2011 68.3199C24.3248 68.7974 24.4502 69.2745 24.5758 69.7515C24.6137 69.8996 24.6516 70.0477 24.6907 70.2003C24.7267 70.336 24.7627 70.4717 24.7998 70.6116C24.831 70.7314 24.8622 70.8513 24.8944 70.9747C24.9769 71.2823 24.9769 71.2823 25.3125 71.4062C25.4055 71.2378 25.4055 71.2378 25.5003 71.066C26.7694 68.7702 28.0488 66.4823 29.375 64.2187C28.9965 63.8295 28.6286 63.4639 28.1952 63.1359C27.7413 62.7523 27.4749 62.3581 27.1582 61.8554C27.099 61.762 27.0398 61.6685 26.9788 61.5722C26.4162 60.67 25.905 59.7387 25.4103 58.7978C24.6519 57.3854 23.8771 56.508 22.3437 55.9375C21.6918 55.755 21.0364 55.6213 20.3711 55.498C20.1992 55.4643 20.0274 55.4305 19.8504 55.3958C19.4319 55.3139 19.013 55.2341 18.5937 55.1562ZM55.39 57.6422C54.7633 58.4898 54.2603 59.3877 53.7597 60.3125C52.9382 61.8211 52.108 63.1356 50.625 64.0625C50.8538 64.6785 51.1432 65.2309 51.4709 65.8001C51.523 65.8909 51.5751 65.9818 51.6287 66.0753C51.795 66.3649 51.9619 66.6541 52.1289 66.9433C52.2374 67.132 52.3458 67.3207 52.4542 67.5094C52.6709 67.8866 52.8878 68.2637 53.105 68.6406C53.6349 69.5611 54.161 70.4837 54.6875 71.4062C55.0315 71.279 55.0315 71.279 55.1174 70.9259C55.1542 70.7833 55.1909 70.6407 55.2288 70.4938C55.2711 70.3327 55.3133 70.1715 55.3569 70.0055C55.4016 69.83 55.4464 69.6546 55.4925 69.4738C55.589 69.1062 55.6856 68.7386 55.7821 68.3709C55.9335 67.7884 56.0842 67.2058 56.2347 66.6231C56.3798 66.0626 56.5269 65.5026 56.6742 64.9426C56.7408 64.6804 56.7408 64.6804 56.8089 64.4128C56.873 64.1696 56.873 64.1696 56.9384 63.9215C56.9753 63.7787 57.0122 63.6359 57.0502 63.4887C57.1974 63.0987 57.3318 62.9136 57.6562 62.6562C58.5749 62.3401 59.409 62.6743 60.3039 62.9345C60.4676 62.9802 60.6312 63.0259 60.7999 63.0729C61.3215 63.2187 61.8424 63.3669 62.3632 63.5156C62.8852 63.6641 63.4073 63.8121 63.93 63.9582C64.2549 64.0491 64.5794 64.1413 64.9035 64.2352C65.0505 64.2764 65.1976 64.3176 65.3492 64.36C65.4782 64.3969 65.6072 64.4338 65.7401 64.4718C66.1202 64.5356 66.3563 64.496 66.7187 64.375C65.9451 63.0187 65.1705 61.6629 64.3949 60.3078C64.2789 60.105 64.1628 59.9022 64.0468 59.6994C63.6718 59.044 63.296 58.3891 62.9199 57.7343C62.7729 57.4774 62.7729 57.4774 62.6229 57.2153C62.4856 56.9767 62.4856 56.9767 62.3455 56.7334C62.2657 56.5943 62.1859 56.4552 62.1037 56.3119C61.8879 55.9586 61.6741 55.6282 61.4062 55.3125C59.413 54.9778 56.5959 56.1105 55.39 57.6422Z" fill="#DFA100"/>
            <path d="M45.4688 15.3125C45.579 15.3443 45.6892 15.3761 45.8028 15.4089C48.2632 16.1326 50.5847 17.3491 52.5 19.0625C52.6937 19.2283 52.6937 19.2283 52.8913 19.3976C55.8839 22.0064 58.1371 25.4864 59.0625 29.375C59.132 29.6554 59.132 29.6554 59.2029 29.9414C60.304 34.8656 59.3596 40.2501 56.7188 44.5312C55.9404 45.722 55.0379 46.7797 54.0625 47.8125C53.9475 47.9394 53.8325 48.0663 53.714 48.197C50.463 51.6495 45.544 53.6242 40.846 53.7817C37.4705 53.8368 34.2802 53.2492 31.25 51.7187C31.0899 51.6404 30.9298 51.562 30.7648 51.4813C27.7046 49.9201 25.0929 47.4463 23.2813 44.5312C23.2256 44.442 23.1699 44.3527 23.1125 44.2608C20.4552 39.8967 19.7515 34.4358 20.8979 29.4879C22.1417 24.62 25.2583 20.1473 29.5728 17.5256C31.3036 16.5082 33.0609 15.6945 35 15.1562C35.2608 15.0813 35.2608 15.0813 35.5268 15.0049C38.6415 14.268 42.4139 14.3809 45.4688 15.3125ZM29.0625 21.25C28.9481 21.34 28.8337 21.43 28.7159 21.5228C25.5476 24.1441 23.5808 28.3061 23.125 32.3437C22.8494 37.0132 23.9517 41.3917 27.0313 45C27.1316 45.1228 27.2319 45.2457 27.3352 45.3723C29.9402 48.4386 33.575 50.258 37.5 50.9375C37.7997 50.9907 37.7997 50.9907 38.1055 51.0449C42.7575 51.5081 47.2152 50.1021 50.8338 47.1784C53.599 44.8868 55.4604 41.8981 56.4063 38.4375C56.456 38.2608 56.5058 38.0842 56.557 37.9022C57.6083 33.547 56.6731 28.9827 54.3879 25.1922C53.9138 24.4567 53.3806 23.7891 52.8125 23.125C52.7095 22.9936 52.7095 22.9936 52.6044 22.8595C50.0311 19.5804 45.6887 17.7722 41.6639 17.2796C37.0263 16.8477 32.6772 18.3714 29.0625 21.25Z" fill="#DFA100"/>
            <path d="M51.4062 26.0938C51.8994 26.4182 52.0143 26.6724 52.2168 27.2266C52.1433 28.6966 50.0855 30.0813 49.0578 31.0952C48.8231 31.3272 48.5888 31.5596 48.3545 31.792C48.2166 31.9281 48.0788 32.0641 47.9367 32.2043C47.6147 32.53 47.3145 32.8689 47.0168 33.2169C46.233 34.1204 45.3792 34.9558 44.5331 35.8002C44.3532 35.9802 44.1734 36.1602 43.9935 36.3402C43.6191 36.7149 43.2444 37.0892 42.8695 37.4634C42.3886 37.9434 41.9084 38.4242 41.4284 38.9051C41.0583 39.2757 40.6878 39.646 40.3173 40.0161C40.1399 40.1934 39.9627 40.3708 39.7856 40.5482C39.5392 40.7951 39.2923 41.0414 39.0452 41.2875C38.9049 41.4277 38.7645 41.568 38.6199 41.7124C38.1204 42.1827 37.6861 42.3176 36.989 42.306C35.9907 42.0287 35.2555 41.0688 34.5508 40.3461C34.3607 40.1558 34.1704 39.9658 33.9799 39.7759C33.5821 39.3781 33.1869 38.978 32.7934 38.576C32.2896 38.0616 31.7808 37.5526 31.2702 37.0451C30.877 36.6534 30.4861 36.2595 30.096 35.8647C29.9092 35.6762 29.7219 35.4882 29.5338 35.3009C29.2712 35.0385 29.0118 34.7732 28.7531 34.5068C28.6367 34.3922 28.6367 34.3922 28.5179 34.2752C27.9817 33.7137 27.8367 33.2709 27.8125 32.5C28.0228 32.0395 28.1384 31.7902 28.5938 31.5625C29.1117 31.4562 29.3458 31.424 29.8438 31.5625C30.4887 32.0283 31.0236 32.5969 31.5723 33.169C31.7349 33.3339 31.8977 33.4985 32.0609 33.6629C32.488 34.0948 32.9113 34.5304 33.3339 34.9668C33.7663 35.4121 34.2023 35.8538 34.6381 36.2958C35.4914 37.1625 36.3407 38.0331 37.1875 38.9063C37.9899 38.235 38.7395 37.5314 39.4762 36.7891C39.5902 36.6749 39.7041 36.5607 39.8215 36.4431C40.0671 36.1969 40.3124 35.9506 40.5576 35.7042C40.9453 35.3145 41.3335 34.9253 41.7218 34.5362C42.5448 33.7114 43.3672 32.886 44.1895 32.0606C45.1451 31.1012 46.1011 30.1421 47.0577 29.1836C47.4408 28.7995 47.8234 28.415 48.2059 28.0304C48.4393 27.7965 48.6727 27.5625 48.9061 27.3286C49.0129 27.2211 49.1196 27.1135 49.2296 27.0027C49.327 26.9053 49.4245 26.8078 49.5249 26.7074C49.6096 26.6223 49.6943 26.5373 49.7816 26.4497C50.281 25.9932 50.7534 26.0375 51.4062 26.0938Z" fill="#DFA100"/>
        </svg>
        <svg width="80" height="80" viewBox="0 0 80 80" fill="none" id="icon-authorized">
            <path d="M56.465 27.8125C57.8791 28.6374 59.5201 30.2873 60.0001 31.875C60.0581 32.409 60.0581 32.409 60.0685 32.998C60.0747 33.1904 60.081 33.3827 60.0874 33.5809C59.9796 35.052 58.9625 36.148 57.9506 37.1203C57.8294 37.24 57.7083 37.3597 57.5834 37.483C57.1994 37.8616 56.8128 38.2375 56.4259 38.6132C56.0407 38.9906 55.656 39.3685 55.2717 39.7468C55.0336 39.9809 54.7948 40.2144 54.5554 40.447C54.0356 40.9549 53.5329 41.4665 53.0591 42.0177C52.4092 42.7731 51.7039 43.469 50.9962 44.1699C50.8547 44.3108 50.7132 44.4517 50.5674 44.5969C50.0424 45.1196 49.5168 45.6417 48.9911 46.1636C48.4741 46.677 47.9578 47.1909 47.4415 47.705C47.3071 47.8382 47.1726 47.9714 47.034 48.1086C46.3597 48.7802 45.7117 49.4625 45.0914 50.1843C44.7186 50.6126 44.3249 51.0188 43.9265 51.4233C43.8443 51.5067 43.7621 51.5902 43.6775 51.6762C43.5056 51.8502 43.3334 52.024 43.1611 52.1976C42.987 52.3736 42.8135 52.5502 42.6408 52.7275C40.5442 54.8796 40.5442 54.8796 39.0968 55.083C38.9051 55.0813 38.7133 55.0797 38.5157 55.0781C38.324 55.0797 38.1323 55.0813 37.9347 55.083C36.4004 54.8674 35.5138 53.8812 34.4722 52.8198C34.3191 52.6659 34.1658 52.5121 34.0125 52.3585C33.6925 52.0374 33.3737 51.7153 33.0556 51.3924C32.651 50.9817 32.2448 50.5727 31.838 50.1643C31.446 49.7707 31.0547 49.3763 30.6636 48.9819C30.5193 48.8365 30.3751 48.6911 30.2265 48.5413C29.5251 47.8297 28.845 47.109 28.1934 46.3514C27.9332 46.0528 27.6591 45.775 27.3713 45.5029C27.2719 45.4068 27.1725 45.3107 27.0701 45.2117C26.8676 45.0176 26.6641 44.8243 26.4598 44.6319C25.6446 43.8392 25.0201 43.0448 24.9116 41.8804C24.9118 41.6756 24.912 41.4708 24.9122 41.2597C24.9088 41.0553 24.9054 40.8508 24.9019 40.6402C25.0218 39.2975 25.9845 38.2768 26.9044 37.373C27.0081 37.2709 27.1118 37.1687 27.2186 37.0635C28.2168 36.1125 29.0793 35.6308 30.4689 35.5468C31.9846 35.6384 33.0163 36.3148 34.026 37.3992C34.1325 37.509 34.2391 37.6187 34.3489 37.7317C34.6855 38.0787 35.0189 38.4286 35.3517 38.7793C35.6869 39.1314 36.0227 39.4828 36.3612 39.8318C36.5708 40.048 36.7786 40.266 36.9842 40.486C37.4271 40.9433 37.7069 41.2165 38.3227 41.4114C39.2013 41.4007 39.7952 40.711 40.3831 40.1208C40.4598 40.0423 40.5364 39.9637 40.6154 39.8828C40.6914 39.8066 40.7674 39.7305 40.8458 39.6521C41.2632 39.2296 41.6602 38.7956 42.0458 38.3439C42.7164 37.5753 43.4358 36.86 44.1603 36.1425C44.3018 36.0016 44.4433 35.8607 44.5891 35.7155C45.1141 35.1928 45.6397 34.6708 46.1654 34.1488C46.6824 33.6354 47.1987 33.1215 47.715 32.6074C47.8494 32.4742 47.9839 32.341 48.1225 32.2038C48.8863 31.4431 49.612 30.6628 50.3126 29.8437C51.981 27.9943 53.9158 26.6594 56.465 27.8125ZM52.4214 31.5136C52.2836 31.6529 52.1457 31.7921 52.0037 31.9355C51.6383 32.3059 51.2759 32.6787 50.9146 33.053C50.5497 33.4296 50.1808 33.8022 49.8124 34.1754C48.7412 35.2646 47.6753 36.351 46.6763 37.5074C46.1868 38.0606 45.6667 38.5839 45.1472 39.1088C45.0303 39.227 44.9135 39.3451 44.7931 39.4668C44.5476 39.7144 44.3019 39.9618 44.056 40.2089C43.8061 40.4607 43.5569 40.7131 43.3083 40.9662C42.9463 41.335 42.5822 41.7016 42.2175 42.0678C42.0529 42.2365 42.0529 42.2365 41.885 42.4087C41.0555 43.2346 40.2751 43.8237 39.0968 43.9892C37.4098 43.975 36.3689 43.7018 35.1564 42.5C34.9929 42.315 34.8316 42.1283 34.6718 41.9403C34.0162 41.1855 33.3159 40.4803 32.6075 39.7753C32.481 39.6482 32.3544 39.521 32.2239 39.3899C32.103 39.2692 31.982 39.1484 31.8574 39.024C31.7482 38.9149 31.639 38.8059 31.5264 38.6935C31.1853 38.3774 30.986 38.2904 30.5275 38.2031C29.7181 38.323 29.3112 38.8074 28.7501 39.375C28.5903 39.5269 28.5903 39.5269 28.4272 39.682C27.9698 40.1487 27.5858 40.5651 27.5001 41.2304C27.7522 43.0283 30.6639 45.0491 31.8947 46.2695C32.3968 46.7675 32.8985 47.266 33.3998 47.7648C33.5128 47.8765 33.6257 47.9882 33.7422 48.1033C34.3675 48.7257 34.9643 49.3627 35.538 50.0332C35.9283 50.4811 36.3461 50.9 36.7677 51.3183C36.8496 51.4008 36.9315 51.4833 37.0158 51.5683C37.5109 52.0621 37.7667 52.316 38.4669 52.4121C39.4879 52.2949 40.0047 51.5932 40.6456 50.8395C41.303 50.0838 42.0083 49.3812 42.7198 48.6767C42.9269 48.4705 42.9269 48.4705 43.1382 48.2602C43.6501 47.7505 44.1627 47.2415 44.6753 46.7326C45.1795 46.232 45.6832 45.7308 46.1866 45.2294C46.3177 45.0997 46.4488 44.9699 46.5838 44.8362C47.1415 44.2808 47.6879 43.7241 48.2011 43.1271C48.8475 42.3755 49.55 41.6835 50.254 40.9863C50.3955 40.8454 50.5371 40.7044 50.6829 40.5592C51.2078 40.0365 51.7335 39.5145 52.2591 38.9925C52.7761 38.4792 53.2925 37.9652 53.8087 37.4511C53.9432 37.318 54.0777 37.1848 54.2162 37.0476C54.8947 36.3718 55.5493 35.6872 56.1685 34.9563C56.4102 34.6831 56.667 34.438 56.9337 34.1894C57.433 33.6581 57.433 33.6581 57.5001 32.9687C57.1732 32.1837 56.7286 31.6336 56.1427 31.0351C56.0659 30.9499 55.989 30.8647 55.9099 30.7769C55.8314 30.6966 55.7529 30.6162 55.6721 30.5334C55.6031 30.4608 55.5341 30.3882 55.463 30.3134C54.0956 29.6122 53.3167 30.5773 52.4214 31.5136Z" fill="#DFA100"/>
            <path d="M42.025 2.93126C42.5837 3.27075 43.1016 3.65918 43.6231 4.0527C46.0301 5.82691 48.6074 7.35428 51.25 8.74997C51.3883 8.82303 51.5265 8.8961 51.6689 8.97137C57.4457 11.9985 63.5812 14.0304 69.9469 15.3796C70.1043 15.4134 70.2616 15.4472 70.4236 15.482C70.7085 15.5422 70.994 15.6 71.28 15.6548C72.3801 15.8843 73.1677 16.338 73.8672 17.2265C75.5601 20.2127 75.0588 25.1578 75.0489 28.4375C75.0485 28.7317 75.0485 28.7317 75.048 29.032C75.0409 31.9348 74.974 34.7826 74.5313 37.6562C74.5053 37.8333 74.4793 38.0105 74.4526 38.1929C73.7496 42.8773 72.7446 48.8215 70 52.8125C69.5319 53.1576 69.3256 53.2812 68.7403 53.2812C68.154 53.0816 67.9647 52.8775 67.6563 52.3437C67.6023 51.6638 67.7013 51.1836 67.9651 50.559C68.0308 50.4004 68.0965 50.2417 68.1642 50.0782C68.2351 49.9106 68.3059 49.743 68.379 49.5703C68.5241 49.2157 68.6688 48.8609 68.8129 48.5058C68.8832 48.3328 68.9535 48.1598 69.0258 47.9815C70.5418 44.1979 71.3968 40.1321 71.875 36.0937C71.8952 35.9268 71.8952 35.9268 71.9158 35.7564C72.1972 33.3685 72.2435 30.9964 72.2364 28.5937C72.2362 28.4054 72.236 28.217 72.2358 28.023C72.2489 23.8347 72.2489 23.8347 71.7188 19.6875C71.7006 19.5767 71.6824 19.4659 71.6636 19.3518C71.5903 19.0066 71.5903 19.0066 71.25 18.5937C70.642 18.3445 70.0203 18.2379 69.375 18.125C69.0611 18.0588 68.7474 17.9917 68.4339 17.9236C68.2737 17.8901 68.1136 17.8566 67.9486 17.822C58.651 15.8561 49.8048 11.9525 42.0856 6.41537C41.9718 6.33539 41.8581 6.2554 41.7408 6.17299C41.5164 6.01497 41.294 5.85403 41.0736 5.69035C40.4422 5.23871 40.4422 5.23871 39.6894 5.20627C39.0666 5.55361 38.5073 5.95646 37.9395 6.38669C36.5898 7.38533 35.1992 8.29618 33.7676 9.17256C33.4679 9.35633 33.17 9.54263 32.8724 9.72958C31.3789 10.6439 31.3789 10.6439 30.4688 10.625C29.9378 10.4528 29.852 10.3248 29.5313 9.84372C29.464 9.23773 29.4456 8.88424 29.7779 8.36362C30.2236 7.89854 30.7047 7.62592 31.2696 7.33395C33.06 6.36714 34.7345 5.22579 36.38 4.03123C36.8025 3.72491 37.2286 3.42404 37.6563 3.12497C37.8225 3.00835 37.8225 3.00835 37.992 2.88937C39.2112 2.15371 40.8068 2.27233 42.025 2.93126Z" fill="#DFA100"/>
            <path d="M14.3695 22.8967C14.8399 23.0033 15.014 23.2204 15.3125 23.5937C15.3666 24.0355 15.3666 24.0355 15.3338 24.5483C15.3239 24.7385 15.314 24.9287 15.3038 25.1247C15.2839 25.4303 15.2839 25.4303 15.2637 25.7422C15.2418 26.1702 15.2229 26.5982 15.2045 27.0264C15.1996 27.1336 15.1948 27.2408 15.1899 27.3512C14.7582 37.5434 17.9316 48.6298 24.8926 56.25C25.1113 56.4844 25.3316 56.7172 25.5532 56.9489C25.707 57.1099 25.8601 57.2716 26.0123 57.434C29.3836 61.0213 33.7393 63.7131 38.3005 65.5072C38.5372 65.6023 38.7698 65.7074 39.0008 65.8154C40.1028 66.175 40.9825 65.7899 41.9922 65.3613C42.1304 65.3047 42.2686 65.2482 42.411 65.1899C43.1468 64.8861 43.8658 64.5607 44.5801 64.209C45.2436 63.8996 45.6884 63.8232 46.4062 64.0625C46.8216 64.3256 46.8671 64.5034 47.0019 64.9805C47.0354 65.5375 46.993 65.7661 46.7187 66.25C46.3574 66.4863 46.0328 66.6668 45.6445 66.8457C45.535 66.8977 45.4254 66.9496 45.3126 67.0032C44.9496 67.1726 44.5844 67.3365 44.2187 67.5C44.0905 67.5589 43.9623 67.6178 43.8303 67.6784C41.5586 68.7121 39.9384 69.169 37.5442 68.2835C34.7498 67.1861 31.9573 65.8451 29.5312 64.0625C29.3861 63.9574 29.3861 63.9574 29.238 63.8502C27.9162 62.8913 26.6647 61.8951 25.4687 60.7812C25.2546 60.5949 25.0397 60.4094 24.8242 60.2246C23.605 59.1569 22.5675 57.9888 21.5625 56.7187C21.3791 56.4925 21.3791 56.4925 21.192 56.2616C19.5433 54.1855 18.1391 51.9349 17.0205 49.5309C16.923 49.3218 16.8242 49.1132 16.724 48.9053C13.9744 43.1958 12.4961 36.6024 12.4682 30.2667C12.4674 30.1056 12.4665 29.9446 12.4655 29.7786C12.4641 29.4411 12.4631 29.1035 12.4625 28.7659C12.4609 28.2516 12.4561 27.7375 12.4512 27.2232C12.4501 26.8933 12.4493 26.5634 12.4487 26.2335C12.4468 26.0813 12.4449 25.9291 12.4429 25.7723C12.4459 24.8346 12.5579 24.13 12.9687 23.2812C13.471 22.9464 13.7772 22.9218 14.3695 22.8967Z" fill="#DFA100"/>
            <path d="M24.057 4.92798C24.5243 5.03383 24.6942 5.26039 25 5.625C25.1589 6.07967 25.1589 6.07967 25.2728 6.60583C25.3166 6.79909 25.3604 6.99235 25.4056 7.19147C25.4496 7.39518 25.4934 7.59894 25.5371 7.80273C26.3135 11.4414 26.3135 11.4414 28.695 14.1614C30.1992 15.0359 31.8969 15.3725 33.576 15.7483C34.1328 15.8771 34.6865 16.0137 35.2374 16.1658C35.4277 16.2178 35.4277 16.2178 35.6218 16.271C35.9375 16.4062 35.9375 16.4062 36.25 16.875C36.3565 17.9936 36.3565 17.9936 35.9943 18.4403C35.5466 18.8157 35.2134 18.8996 34.6441 19.0228C34.4509 19.0666 34.2576 19.1104 34.0585 19.1556C33.8548 19.1996 33.651 19.2435 33.4472 19.2871C29.8086 20.0635 29.8086 20.0635 27.0886 22.4451C26.2141 23.9492 25.8775 25.6469 25.5017 27.326C25.3729 27.8829 25.2363 28.4365 25.0842 28.9874C25.0321 29.1777 25.0321 29.1777 24.979 29.3718C24.8437 29.6875 24.8437 29.6875 24.375 30C23.2564 30.1065 23.2564 30.1065 22.8097 29.7443C22.4342 29.2966 22.3503 28.9634 22.2272 28.3942C22.1833 28.2009 22.1395 28.0076 22.0944 27.8085C22.0504 27.6048 22.0065 27.4011 21.9629 27.1973C21.1865 23.5586 21.1865 23.5586 18.8049 20.8386C17.3008 19.9641 15.6031 19.6275 13.9239 19.2517C13.3671 19.1229 12.8135 18.9863 12.2626 18.8342C12.0723 18.7822 12.0723 18.7822 11.8781 18.729C11.5625 18.5938 11.5625 18.5938 11.25 18.125C11.1434 17.0064 11.1434 17.0064 11.5057 16.5597C11.9534 16.1843 12.2866 16.1004 12.8558 15.9772C13.0491 15.9334 13.2423 15.8896 13.4414 15.8444C13.6452 15.8004 13.8489 15.7565 14.0527 15.7129C17.6913 14.9365 17.6913 14.9365 20.4114 12.5549C21.2859 11.0508 21.6225 9.35308 21.9983 7.67395C22.1271 7.11714 22.2637 6.56352 22.4158 6.01257C22.4678 5.82229 22.4678 5.82229 22.521 5.62817C22.8204 4.92943 23.3776 4.95678 24.057 4.92798ZM23.5937 12.1875C23.4971 12.3999 23.4971 12.3999 23.3984 12.6166C22.3173 14.9259 20.8701 16.4248 18.4375 17.3438C18.4375 17.4469 18.4375 17.55 18.4375 17.6562C18.6499 17.7529 18.6499 17.7529 18.8666 17.8516C21.1758 18.9327 22.6747 20.3799 23.5937 22.8125C23.6969 22.8125 23.8 22.8125 23.9062 22.8125C23.9689 22.6727 24.0315 22.5329 24.0961 22.3889C25.1186 20.1807 26.4193 18.8829 28.5937 17.8125C28.7484 17.7609 28.9031 17.7094 29.0625 17.6562C29.0625 17.5531 29.0625 17.45 29.0625 17.3438C28.9227 17.2811 28.7829 17.2185 28.6389 17.1539C26.4307 16.1314 25.1329 14.8306 24.0625 12.6562C23.9851 12.4242 23.9851 12.4242 23.9062 12.1875C23.8031 12.1875 23.7 12.1875 23.5937 12.1875Z" fill="#DFA100"/>
            <path d="M62.807 49.928C63.2743 50.0338 63.4442 50.2604 63.75 50.625C63.9089 51.0797 63.9089 51.0797 64.0228 51.6058C64.0666 51.7991 64.1104 51.9924 64.1556 52.1915C64.1996 52.3952 64.2434 52.5989 64.2871 52.8027C65.0635 56.4414 65.0635 56.4414 67.445 59.1614C68.9492 60.0359 70.6469 60.3725 72.326 60.7483C72.8828 60.8771 73.4365 61.0137 73.9874 61.1658C74.1777 61.2178 74.1777 61.2178 74.3718 61.271C74.6875 61.4062 74.6875 61.4062 75 61.875C75.1065 62.9936 75.1065 62.9936 74.7443 63.4403C74.2966 63.8157 73.9634 63.8996 73.3941 64.0228C73.2009 64.0666 73.0076 64.1104 72.8085 64.1556C72.6048 64.1996 72.401 64.2435 72.1972 64.2871C68.5637 65.0574 68.5637 65.0574 65.8536 67.4373C64.9209 68.9681 64.5777 70.6965 64.2215 72.4281C64.1572 72.7373 64.0901 73.0459 64.0228 73.3545C63.9852 73.5357 63.9477 73.7168 63.9089 73.9035C63.7335 74.4239 63.5492 74.6581 63.125 75C62.8125 75.083 62.8125 75.083 62.5 75.0781C62.3453 75.0805 62.3453 75.0805 62.1875 75.083C61.7305 74.9616 61.5528 74.735 61.25 74.375C61.091 73.9203 61.091 73.9203 60.9772 73.3942C60.9333 73.2009 60.8895 73.0076 60.8444 72.8085C60.8004 72.6048 60.7565 72.4011 60.7129 72.1973C59.9365 68.5586 59.9365 68.5586 57.5549 65.8386C56.0508 64.9641 54.3531 64.6275 52.6739 64.2517C52.1171 64.1229 51.5635 63.9863 51.0126 63.8342C50.8223 63.7822 50.8223 63.7822 50.6281 63.729C50.3125 63.5938 50.3125 63.5938 50 63.125C49.8934 62.0064 49.8934 62.0064 50.2557 61.5597C50.7034 61.1843 51.0366 61.1004 51.6058 60.9772C51.7991 60.9334 51.9923 60.8896 52.1914 60.8444C52.3952 60.8004 52.5989 60.7565 52.8027 60.7129C56.4413 59.9365 56.4413 59.9365 59.1614 57.5549C60.0359 56.0508 60.3725 54.3531 60.7483 52.674C60.8771 52.1171 61.0137 51.5635 61.1658 51.0126C61.2178 50.8223 61.2178 50.8223 61.271 50.6282C61.5704 49.9294 62.1276 49.9568 62.807 49.928ZM62.3437 57.1875C62.2471 57.3999 62.2471 57.3999 62.1484 57.6166C61.0673 59.9259 59.6201 61.4248 57.1875 62.3438C57.1875 62.4469 57.1875 62.55 57.1875 62.6562C57.3999 62.7529 57.3999 62.7529 57.6166 62.8516C59.9258 63.9327 61.4247 65.3799 62.3437 67.8125C62.4469 67.8125 62.55 67.8125 62.6562 67.8125C62.7189 67.6727 62.7815 67.5329 62.8461 67.3889C63.8686 65.1807 65.1693 63.8829 67.3437 62.8125C67.4984 62.7609 67.6531 62.7094 67.8125 62.6562C67.8125 62.5531 67.8125 62.45 67.8125 62.3438C67.6727 62.2811 67.5329 62.2185 67.3889 62.1539C65.1807 61.1314 63.8829 59.8306 62.8125 57.6562C62.7351 57.4242 62.7351 57.4242 62.6562 57.1875C62.5531 57.1875 62.45 57.1875 62.3437 57.1875Z" fill="#DFA100"/>
            <path d="M7.34365 18.75C7.76967 19.068 7.76967 19.068 8.1249 19.5313C8.16193 19.9913 8.15884 20.3418 8.10537 20.791C8.09087 20.9522 8.09087 20.9522 8.07607 21.1167C8.05509 21.3464 8.03244 21.5759 8.0084 21.8053C6.73946 34.0075 8.92663 46.1301 15.1749 56.7377C15.3124 57.0313 15.3124 57.0313 15.3222 57.5489C15.1213 58.057 14.9889 58.2886 14.5311 58.5938C13.7635 58.73 13.7635 58.73 13.2811 58.5938C12.3942 57.8781 11.8796 56.7375 11.3573 55.752C11.2686 55.5857 11.1799 55.4193 11.0886 55.248C6.80925 47.1362 4.93438 38.2104 4.95057 29.0779C4.95107 28.5 4.94739 27.9222 4.94344 27.3444C4.93786 25.3816 5.00321 23.4354 5.1885 21.4807C5.21187 21.2042 5.21187 21.2042 5.23571 20.922C5.38733 19.513 5.38733 19.513 5.8426 19.0249C6.39226 18.6539 6.69354 18.6339 7.34365 18.75Z" fill="#DFA100"/>
            <path d="M22.6563 65.4688C22.985 65.7105 23.2683 65.9448 23.5645 66.2207C27.386 69.6028 34.9304 74.9806 40.287 74.7397C41.0458 74.6226 41.7599 74.3591 42.4805 74.1016C42.6577 74.0389 42.8349 73.9762 43.0174 73.9116C46.4417 72.6694 49.7359 71.0618 52.7442 68.9984C53.9049 68.2052 53.9049 68.2052 54.5313 68.2617C55.1167 68.4813 55.3495 68.6678 55.625 69.2188C55.6836 69.6582 55.6836 69.6582 55.625 70.1563C55.0897 70.7681 54.4748 71.2266 53.7988 71.6699C53.6972 71.7369 53.5955 71.8039 53.4907 71.8729C50.1135 74.0631 46.4524 75.7148 42.6563 77.0313C42.5307 77.0786 42.4051 77.126 42.2756 77.1748C40.4115 77.8248 38.6711 77.5403 36.8555 76.8848C36.6734 76.8215 36.4914 76.7581 36.3038 76.6929C34.6787 76.1158 33.1136 75.4388 31.5625 74.6875C31.3499 74.5874 31.1373 74.4873 30.9247 74.3872C28.3191 73.1421 25.8726 71.6148 23.5938 69.8438C23.4461 69.7294 23.2985 69.615 23.1464 69.4971C20.8893 67.7161 20.8893 67.7161 20.625 67.1875C20.5585 66.5888 20.5776 66.3235 20.9082 65.8106C21.4794 65.2394 21.9071 65.2651 22.6563 65.4688Z" fill="#DFA100"/>
            <path d="M65.7812 22.0312C66.6204 22.4897 67.0773 23.172 67.3889 24.0588C68.8519 30.2804 67.0566 38.3598 65.1367 44.2871C65.086 44.4463 65.0353 44.6055 64.9831 44.7696C64.9335 44.9163 64.8839 45.063 64.8328 45.2142C64.7681 45.4074 64.7681 45.4074 64.7021 45.6045C64.4962 46.0058 64.2909 46.1754 63.9062 46.4062C63.3217 46.4932 63.0479 46.4501 62.5293 46.1621C62.0711 45.6515 62.0608 45.3732 62.0312 44.6874C62.1475 44.1356 62.3285 43.6096 62.5098 43.0761C63.9422 38.5915 64.7548 33.9313 64.8438 29.2187C64.8461 29.1142 64.8485 29.0097 64.8509 28.9021C64.8645 28.2257 64.8596 27.5512 64.8438 26.8749C64.8411 26.6908 64.8385 26.5068 64.8358 26.3171C64.8008 25.1961 64.8008 25.1961 64.2773 24.2382C63.9062 23.7499 63.9062 23.7499 63.9062 23.164C64.0552 22.6798 64.1284 22.4775 64.5312 22.1874C64.9934 21.9564 65.266 21.9631 65.7812 22.0312Z" fill="#DFA100"/>
            <path d="M41.8555 11.543C42.1263 11.6992 42.3929 11.8628 42.6562 12.0313C43.0142 12.2594 43.3722 12.4874 43.7305 12.7149C43.8333 12.7803 43.9361 12.8458 44.042 12.9132C45.092 13.5719 46.1742 14.169 47.2656 14.7559C47.3586 14.806 47.4516 14.856 47.5475 14.9076C49.043 15.7092 50.5637 16.4379 52.1289 17.0956C53.2015 17.5606 53.2015 17.5606 53.6176 18.0597C53.8122 18.615 53.757 18.97 53.5938 19.5313C53.2715 19.9219 53.2715 19.9219 52.8125 20.1563C51.9231 20.1068 51.2304 19.9041 50.4333 19.5038C50.3299 19.4536 50.2265 19.4034 50.12 19.3517C49.7861 19.1889 49.4535 19.0233 49.1211 18.8575C48.8893 18.7432 48.6575 18.6291 48.4256 18.515C46.2095 17.4194 43.9888 16.3151 41.9311 14.9396C40.9765 14.3038 40.2798 13.9111 39.0961 14.0375C38.75 14.0625 38.75 14.0625 38.2617 13.8477C37.8079 13.4543 37.8137 13.2962 37.7637 12.6758C37.769 12.1822 37.7891 12.0627 38.0957 11.6504C39.0961 10.9359 40.7797 11.0225 41.8555 11.543Z" fill="#DFA100"/>
            <path d="M59.1979 19.8211C60.5552 20.2909 60.5552 20.2909 60.9374 20.7812C61.098 21.4004 61.1571 21.7361 60.8886 22.3242C60.6249 22.6562 60.6249 22.6562 60.3124 22.8125C59.0807 22.9519 57.7321 22.5672 56.7407 21.809C56.4721 21.4374 56.4901 21.0607 56.5057 20.6152C56.5918 20.1558 56.8196 19.958 57.1874 19.6875C57.8122 19.3751 58.5575 19.6301 59.1979 19.8211Z" fill="#DFA100"/>
            <path d="M17.002 60.1953C18.0298 60.4372 18.8278 61.3633 19.3988 62.2247C19.6308 62.7068 19.6193 63.0751 19.5312 63.5938C19.2068 64.0869 18.9526 64.2018 18.3984 64.4043C17.4137 64.3551 16.9432 63.7006 16.3098 63.0029C15.9304 62.5313 15.7883 62.2284 15.6836 61.6211C15.834 60.8091 16.2006 60.409 17.002 60.1953Z" fill="#DFA100"/>
        </svg>
        <svg width="80" height="80" viewBox="0 0 80 80" fill="none" id="icon-genuine">
            <path d="M43.2811 4.37499C43.4309 4.45797 43.5808 4.54096 43.7352 4.62645C44.213 4.90059 44.6843 5.18427 45.1561 5.46874C47.337 6.90006 47.337 6.90006 49.7767 7.52215C49.9213 7.52325 50.0659 7.52435 50.2148 7.52548C50.3711 7.52613 50.5273 7.52678 50.6883 7.52745C51.0207 7.53108 51.3532 7.53485 51.6856 7.53875C52.2085 7.54421 52.7312 7.5488 53.2541 7.55091C53.7596 7.55335 54.2649 7.55965 54.7703 7.56652C54.9241 7.56622 55.0778 7.56592 55.2361 7.56561C56.8352 7.59336 58.234 8.07487 59.456 9.1162C60.6216 10.3644 61.3966 11.96 62.13 13.4869C62.4595 14.1338 62.8657 14.7187 63.2811 15.3125C63.3737 15.4676 63.4664 15.6227 63.5618 15.7825C63.9496 16.3092 64.2993 16.5489 64.8631 16.875C64.9526 16.9275 65.042 16.98 65.1342 17.0341C65.4012 17.1907 65.6692 17.3454 65.9373 17.5C66.2143 17.6689 66.491 17.8381 66.7674 18.0078C67.2058 18.271 67.6431 18.5122 68.1053 18.7305C70.0979 19.7126 71.4742 20.8532 72.2161 22.9716C72.4199 23.7162 72.4258 24.4288 72.4168 25.1965C72.4179 25.3572 72.419 25.5179 72.4202 25.6835C72.4236 26.1914 72.4231 26.6991 72.4217 27.207C72.4198 27.8781 72.422 28.5489 72.4266 29.22C72.4248 29.3714 72.423 29.5228 72.4212 29.6788C72.4288 30.7068 72.6487 31.4383 73.1248 32.3437C73.2328 32.5746 73.3403 32.8057 73.4471 33.0371C73.7741 33.6901 74.1484 34.3052 74.5351 34.9237C75.8523 37.0351 76.8327 38.8527 76.4061 41.4062C76.0292 42.7924 75.2767 44.0364 74.4835 45.2209C73.0631 47.3571 73.0631 47.3571 72.4777 49.7769C72.4766 49.9215 72.4755 50.066 72.4743 50.215C72.4734 50.4494 72.4734 50.4494 72.4724 50.6885C72.4687 51.0209 72.465 51.3533 72.4611 51.6858C72.4556 52.2086 72.451 52.7314 72.4489 53.2542C72.4465 53.7597 72.4402 54.265 72.4333 54.7705C72.4336 54.9242 72.4339 55.0779 72.4342 55.2363C72.4148 56.3519 72.1556 57.2571 71.7186 58.2812C71.862 58.2853 72.0054 58.2893 72.1532 58.2934C74.5169 58.4027 74.5169 58.4027 75.4588 59.375C75.8792 60.1663 75.8637 60.9841 75.6932 61.8554C75.4258 62.4367 75.0753 62.8785 74.6739 63.374C74.3848 63.7375 74.1197 64.1091 73.8573 64.4922C73.1812 65.4708 72.4493 66.4057 71.7186 67.3437C72.2316 68.4609 73.0734 69.4279 73.828 70.3906C74.2444 70.9231 74.6547 71.4596 75.0584 72.0019C75.1628 72.1415 75.2671 72.2811 75.3746 72.4249C75.8984 73.2362 75.8701 74.0863 75.6834 75.0195C75.3652 75.6849 74.8833 76.0739 74.2186 76.4062C73.7715 76.4257 73.3281 76.4357 72.8809 76.4388C72.7424 76.4404 72.6039 76.4419 72.4612 76.4435C72.0015 76.4482 71.5417 76.4515 71.082 76.4544C70.925 76.4555 70.7681 76.4565 70.6064 76.4576C69.7754 76.4627 68.9444 76.4665 68.1134 76.4695C67.4258 76.4723 66.7382 76.4777 66.0506 76.4855C65.2205 76.4949 64.3905 76.4997 63.5603 76.5013C63.2441 76.5026 62.928 76.5055 62.6119 76.5101C62.1686 76.5162 61.7257 76.5164 61.2824 76.5151C61.1524 76.5183 61.0224 76.5214 60.8885 76.5246C60.0445 76.5141 59.5941 76.3129 58.969 75.7463C57.7125 74.1553 58.4373 71.4592 58.4373 69.8437C46.2686 69.8437 34.0998 69.8437 21.5623 69.8437C21.5623 71.4422 21.5623 73.0406 21.5623 74.6875C21.0091 75.7939 21.0091 75.7939 20.4686 76.25C19.8629 76.4519 19.2877 76.4318 18.6563 76.4339C18.519 76.4349 18.3818 76.4359 18.2404 76.437C17.7858 76.4401 17.3312 76.4419 16.8767 76.4435C16.7214 76.4441 16.5661 76.4447 16.4062 76.4454C15.5845 76.4487 14.7628 76.4509 13.9411 76.4523C13.0925 76.4541 12.244 76.4595 11.3955 76.4657C10.7428 76.4697 10.0902 76.4711 9.4375 76.4716C9.12471 76.4724 8.81191 76.4742 8.49914 76.4771C8.06114 76.4809 7.62332 76.4808 7.18532 76.4797C6.99204 76.4827 6.99204 76.4827 6.79486 76.4857C5.82326 76.477 5.31053 76.1677 4.56038 75.5469C4.09235 74.9557 4.14773 74.1583 4.21859 73.4375C4.48662 72.5329 4.9992 71.9205 5.59676 71.1993C6.04935 70.6437 6.46381 70.0643 6.87911 69.4806C7.265 68.9571 7.68516 68.4664 8.11629 67.9797C8.32525 67.6561 8.32525 67.6561 8.18831 67.2705C7.95823 66.8563 7.70673 66.5151 7.40218 66.1523C6.83105 65.4573 6.29846 64.7432 5.77498 64.0118C5.39695 63.496 4.99514 63.0019 4.58541 62.511C4.15312 61.8469 4.16539 61.0839 4.21859 60.3125C4.49113 59.4191 4.80507 59.0378 5.62484 58.5937C6.16657 58.4132 6.64695 58.3862 7.21663 58.3496C7.51483 58.33 7.51483 58.33 7.81905 58.3099C7.97152 58.3005 8.12399 58.291 8.28109 58.2812C8.21469 58.1257 8.21469 58.1257 8.14694 57.9671C7.71306 56.8802 7.56919 55.9673 7.58284 54.8034C7.58174 54.6427 7.58064 54.482 7.57951 54.3165C7.57609 53.8086 7.57653 53.3008 7.57796 52.7929C7.57985 52.1219 7.57769 51.451 7.57308 50.78C7.57485 50.6286 7.57662 50.4772 7.57844 50.3212C7.57087 49.2931 7.35094 48.5616 6.87484 47.6562C6.76686 47.4254 6.65939 47.1943 6.55257 46.9629C6.22557 46.3099 5.85123 45.6948 5.46454 45.0762C4.12781 42.9334 3.2356 41.1742 3.59359 38.5937C3.77416 37.9143 4.03285 37.3314 4.37484 36.7187C4.44634 36.59 4.51784 36.4613 4.59151 36.3287C4.82326 35.9319 5.06547 35.5438 5.31234 35.1562C6.87607 32.8582 6.87607 32.8582 7.522 30.2231C7.5231 30.0785 7.5242 29.9339 7.52533 29.785C7.52598 29.6287 7.52663 29.4725 7.5273 29.3115C7.53093 28.9791 7.5347 28.6466 7.53859 28.3142C7.54406 27.7914 7.54865 27.2686 7.55076 26.7457C7.5532 26.2403 7.5595 25.7349 7.56637 25.2295C7.56607 25.0758 7.56577 24.9221 7.56546 24.7637C7.59321 23.1646 8.07472 21.7658 9.11605 20.5438C10.3647 19.3778 11.9605 18.6037 13.4874 17.8693C14.0205 17.598 14.5082 17.2833 14.9968 16.9391C15.3123 16.7187 15.3123 16.7187 15.6035 16.5521C16.5694 15.9717 16.977 15.0275 17.4998 14.0625C17.6644 13.7882 17.8303 13.5146 17.9979 13.2422C18.2667 12.7972 18.5157 12.3535 18.7401 11.8848C19.7269 9.89097 20.8311 8.54985 22.9623 7.79061C23.7104 7.57899 24.4234 7.57393 25.1964 7.583C25.3571 7.58189 25.5178 7.58079 25.6833 7.57966C26.1912 7.57625 26.699 7.57668 27.2069 7.57811C27.8779 7.58 28.5488 7.57784 29.2198 7.57323C29.3712 7.575 29.5226 7.57677 29.6786 7.57859C30.7067 7.57102 31.4382 7.35109 32.3436 6.87499C32.5744 6.76701 32.8055 6.65954 33.0369 6.55272C33.6899 6.22572 34.305 5.85139 34.9236 5.46469C37.654 3.76142 40.2363 2.68155 43.2811 4.37499ZM35.7811 7.96874C32.5111 10.0125 32.5111 10.0125 30.979 10.0246C30.8329 10.0262 30.6868 10.0278 30.5363 10.0295C30.3794 10.0306 30.2225 10.0318 30.0609 10.0329C29.7268 10.0373 29.3927 10.0418 29.0587 10.0464C28.5334 10.0528 28.0082 10.0586 27.4829 10.0627C26.975 10.067 26.4672 10.0742 25.9593 10.0818C25.7258 10.0825 25.7258 10.0825 25.4877 10.0833C24.1006 10.1076 23.0394 10.3853 22.0311 11.4062C21.7458 11.8256 21.5118 12.2646 21.2791 12.7148C21.1442 12.9667 21.0089 13.2183 20.8732 13.4698C20.7723 13.6582 20.7723 13.6582 20.6693 13.8505C20.1662 14.7735 19.6146 15.6683 19.0623 16.5625C18.9737 16.7063 18.8851 16.8501 18.7938 16.9983C18.0455 18.1703 17.0877 18.7718 15.908 19.4726C15.7714 19.5548 15.6347 19.6369 15.4938 19.7215C14.8108 20.129 14.1245 20.5239 13.4209 20.8948C13.2953 20.9615 13.1698 21.0283 13.0404 21.097C12.805 21.2209 12.5683 21.3425 12.33 21.4609C11.3494 21.9777 10.7394 22.6709 10.2894 23.685C10.1043 24.4259 10.1126 25.1351 10.1134 25.896C10.1102 26.2276 10.1069 26.5592 10.1036 26.8909C10.1001 27.4099 10.0975 27.9289 10.0966 28.448C10.0951 28.9516 10.0898 29.455 10.0841 29.9585C10.0849 30.1115 10.0856 30.2646 10.0865 30.4223C10.0558 32.5965 8.8259 34.4757 7.67802 36.259C6.35552 38.3095 6.35552 38.3095 6.13265 40.6903C6.46466 41.8333 7.16514 42.842 7.78304 43.8476C10.0126 47.5199 10.0126 47.5199 10.0245 49.0208C10.0261 49.1669 10.0277 49.313 10.0293 49.4635C10.0305 49.6204 10.0316 49.7773 10.0328 49.9389C10.0372 50.273 10.0417 50.6071 10.0462 50.9411C10.0527 51.4664 10.0584 51.9916 10.0626 52.5169C10.0669 53.0248 10.074 53.5326 10.0816 54.0405C10.0821 54.1962 10.0826 54.3518 10.0832 54.5121C10.1076 55.9119 10.4121 56.9511 11.4061 57.9687C12.1087 58.5194 12.7115 58.4947 13.5643 58.4668C13.749 58.4636 13.749 58.4636 13.9375 58.4604C14.2396 58.4549 14.5416 58.4465 14.8436 58.4375C14.845 58.2625 14.8465 58.0876 14.848 57.9073C14.8543 57.2556 14.8645 56.6039 14.876 55.9522C14.8804 55.6706 14.8837 55.3891 14.8859 55.1075C14.8893 54.7017 14.8966 54.2961 14.9046 53.8904C14.9049 53.7028 14.9049 53.7028 14.9052 53.5115C14.9266 52.6883 15.0874 52.2198 15.6248 51.5625C16.3324 50.9407 17.2248 50.9832 18.1248 50.9375C17.7244 50.2039 17.3142 49.4843 16.8651 48.7793C15.8243 47.02 15.6832 45.3266 15.6871 43.3325C15.6859 43.0679 15.6845 42.8033 15.683 42.5388C15.6807 41.9867 15.6808 41.4346 15.6824 40.8826C15.6842 40.1821 15.679 39.482 15.6717 38.7816C15.6671 38.2357 15.6668 37.6898 15.6678 37.1439C15.6676 36.886 15.666 36.6282 15.6629 36.3703C15.637 33.9879 16.2069 32.0212 17.5389 30.0195C17.689 29.7845 17.8385 29.5491 17.9875 29.3133C18.0622 29.1956 18.1369 29.0778 18.2139 28.9565C18.5875 28.35 18.9268 27.7251 19.2674 27.0996C19.7258 26.2606 20.1975 25.4515 20.7463 24.6673C20.9424 24.3672 21.0907 24.0658 21.2401 23.7402C21.8295 22.5225 22.7341 21.7285 23.9061 21.0937C24.0312 21.0257 24.1562 20.9576 24.2851 20.8874C24.5689 20.7336 24.8529 20.5802 25.1372 20.4272C25.6985 20.1153 26.2476 19.786 26.7967 19.4531C27.5997 18.9665 28.4096 18.5038 29.2387 18.0627C29.5825 17.871 29.9151 17.6734 30.2482 17.4646C30.3477 17.4028 30.4472 17.3409 30.5498 17.2772C30.741 17.1576 30.9314 17.0365 31.1204 16.9134C32.8744 15.8206 34.6573 15.6833 36.6673 15.6872C36.9319 15.686 37.1965 15.6847 37.461 15.6832C38.0131 15.6809 38.5652 15.6809 39.1173 15.6826C39.8177 15.6844 40.5179 15.6791 41.2182 15.6719C41.7642 15.6672 42.31 15.667 42.8559 15.668C43.1138 15.6678 43.3717 15.6662 43.6295 15.663C46.092 15.6363 48.0704 16.2493 50.117 17.6562C50.368 17.8219 50.6195 17.9869 50.8714 18.1512C50.9897 18.2285 51.1081 18.3057 51.23 18.3852C51.8028 18.7446 52.4067 19.0301 53.0168 19.3194C53.6171 19.6218 54.1689 19.9877 54.7301 20.3564C55.1585 20.6265 55.5951 20.8609 56.0448 21.0937C57.3394 21.7919 58.2073 22.6163 58.9061 23.9062C58.9723 24.0277 59.0386 24.1491 59.1069 24.2743C59.2596 24.5554 59.4117 24.8368 59.5634 25.1184C59.9643 25.8433 60.387 26.5549 60.8088 27.2677C61.3399 28.166 61.8592 29.0703 62.3729 29.9786C62.6261 30.4168 62.8924 30.8426 63.1639 31.2695C64.1902 33.006 64.3164 34.7015 64.3126 36.6675C64.3138 36.932 64.3151 37.1966 64.3166 37.4612C64.319 38.0133 64.3189 38.5653 64.3172 39.1174C64.3154 39.8178 64.3207 40.518 64.328 41.2184C64.3326 41.7643 64.3328 42.3102 64.3319 42.8561C64.332 43.1139 64.3336 43.3718 64.3368 43.6296C64.3629 46.037 63.8071 47.9575 62.4241 49.9634C62.2096 50.2797 62.0366 50.5918 61.8748 50.9375C61.9862 50.9397 62.0976 50.9419 62.2124 50.9442C63.2893 50.9978 63.8861 51.1419 64.6873 51.875C65.112 52.4708 65.0545 53.1568 65.0645 53.8598C65.0691 54.0562 65.0691 54.0562 65.0737 54.2565C65.083 54.6736 65.0903 55.0907 65.0975 55.5078C65.1035 55.791 65.1096 56.0742 65.1158 56.3574C65.1308 57.0507 65.1439 57.7441 65.1561 58.4375C65.5826 58.4502 66.0088 58.4595 66.4354 58.4668C66.5555 58.4707 66.6757 58.4746 66.7995 58.4787C67.5332 58.4881 67.9927 58.4368 68.5936 57.9687C68.869 57.6888 68.869 57.6888 69.0916 57.373C69.168 57.2721 69.2443 57.1712 69.323 57.0672C69.8955 56.1085 69.8874 55.1872 69.8863 54.104C69.8895 53.7724 69.8927 53.4407 69.8961 53.1091C69.8996 52.5901 69.9022 52.071 69.9031 51.552C69.9046 51.0484 69.9099 50.545 69.9156 50.0415C69.9148 49.8884 69.914 49.7354 69.9132 49.5777C69.9283 48.508 70.1631 47.681 70.6248 46.7187C70.6734 46.6175 70.7219 46.5162 70.772 46.4118C70.9126 46.1304 71.0616 45.8532 71.2108 45.5762C71.2639 45.4774 71.317 45.3787 71.3717 45.277C71.7399 44.6011 72.1325 43.9446 72.5389 43.291C73.7709 41.3583 73.7709 41.3583 73.8188 39.1211C73.4194 37.8997 72.7232 36.8543 72.0311 35.7812C69.9873 32.5112 69.9873 32.5112 69.9752 30.9791C69.9728 30.76 69.9728 30.76 69.9703 30.5365C69.9692 30.3796 69.968 30.2227 69.9669 30.061C69.9625 29.727 69.958 29.3929 69.9534 29.0588C69.947 28.5336 69.9412 28.0083 69.9371 27.483C69.9328 26.9751 69.9256 26.4673 69.918 25.9595C69.9173 25.726 69.9173 25.726 69.9165 25.4878C69.8955 24.2862 69.7083 23.1952 68.8689 22.265C68.2242 21.7175 67.4595 21.3377 66.7186 20.9375C66.5794 20.8622 66.4402 20.7868 66.2968 20.7092C66.1621 20.6363 66.0273 20.5634 65.8885 20.4883C63.5126 19.1986 61.7852 18.2123 60.4686 15.7812C60.1756 15.2565 59.8798 14.7334 59.584 14.2103C59.3084 13.7221 59.0368 13.2332 58.7736 12.738C58.1511 11.595 57.5473 10.8228 56.3343 10.3046C55.5845 10.1035 54.8767 10.1127 54.1038 10.1135C53.7722 10.1103 53.4406 10.1071 53.109 10.1037C52.5899 10.1002 52.0709 10.0976 51.5518 10.0967C51.0483 10.0952 50.5449 10.0899 50.0413 10.0842C49.8883 10.085 49.7352 10.0858 49.5776 10.0866C47.403 10.056 45.5245 8.82567 43.7407 7.67821C40.6137 5.66846 38.8798 5.97009 35.7811 7.96874ZM32.2948 19.1797C31.2001 19.9488 30.0346 20.5972 28.8573 21.2305C28.0516 21.6659 27.2652 22.1297 26.4838 22.6071C26.0474 22.8735 25.6139 23.1307 25.161 23.3685C24.0924 23.9366 23.6789 24.5696 23.1248 25.625C22.8949 26.0151 22.6577 26.4007 22.4217 26.7871C22.0257 27.4437 21.6399 28.1024 21.2791 28.7793C20.7456 29.777 20.1543 30.7401 19.5663 31.7063C18.7893 32.9883 18.2642 33.9378 18.2559 35.4563C18.2551 35.5639 18.2544 35.6715 18.2536 35.7823C18.2513 36.1374 18.2502 36.4924 18.2493 36.8475C18.2484 37.0955 18.2475 37.3435 18.2466 37.5914C18.245 38.1114 18.2441 38.6314 18.2435 39.1514C18.2427 39.8148 18.2389 40.4781 18.2345 41.1414C18.2316 41.6539 18.2308 42.1664 18.2305 42.6789C18.2301 42.9232 18.2288 43.1676 18.2268 43.4119C18.2146 44.9622 18.2149 46.3964 19.1795 47.7051C20.5711 49.6826 20.5711 49.6826 20.9373 50.7812C33.5186 50.7812 46.0998 50.7812 59.0623 50.7812C59.3717 50.1625 59.6811 49.5437 59.9998 48.9062C60.1851 48.5993 60.3753 48.2951 60.576 47.998C61.3034 46.8852 61.7364 45.9076 61.7438 44.5614C61.7445 44.4538 61.7453 44.3463 61.7461 44.2355C61.7484 43.8796 61.7495 43.5236 61.7503 43.1677C61.7512 42.9195 61.7521 42.6713 61.753 42.4231C61.7547 41.9022 61.7556 41.3813 61.7561 40.8604C61.757 40.1958 61.7607 39.5312 61.7652 38.8666C61.7681 38.3535 61.7689 37.8404 61.7691 37.3272C61.7696 37.0824 61.7709 36.8376 61.7729 36.5928C61.7851 35.0409 61.7857 33.605 60.8201 32.2949C60.051 31.2003 59.4026 30.0347 58.7694 28.8574C58.3339 28.0517 57.8701 27.2653 57.3928 26.4839C57.1263 26.0476 56.8691 25.614 56.6313 25.1611C56.0632 24.0926 55.4302 23.6791 54.3748 23.125C53.9847 22.8951 53.5991 22.6579 53.2127 22.4219C52.5561 22.0258 51.8974 21.6401 51.2205 21.2793C50.2228 20.7458 49.2597 20.1544 48.2935 19.5664C47.0115 18.7895 46.062 18.2644 44.5435 18.2561C44.3821 18.2549 44.3821 18.2549 44.2175 18.2537C43.8625 18.2514 43.5074 18.2504 43.1523 18.2495C42.9043 18.2486 42.6564 18.2477 42.4084 18.2468C41.8884 18.2452 41.3684 18.2442 40.8484 18.2437C40.1851 18.2428 39.5217 18.2391 38.8584 18.2346C38.3459 18.2317 37.8335 18.2309 37.321 18.2307C37.0766 18.2302 36.8322 18.229 36.5879 18.2269C35.0376 18.2147 33.6035 18.2151 32.2948 19.1797ZM17.3436 53.4375C17.3436 57.975 17.3436 62.5125 17.3436 67.1875C32.2967 67.1875 47.2498 67.1875 62.6561 67.1875C62.6561 62.65 62.6561 58.1125 62.6561 53.4375C47.703 53.4375 32.7498 53.4375 17.3436 53.4375ZM7.03109 61.0937C7.34046 61.5062 7.64984 61.9187 7.96859 62.3437C8.13839 62.5847 8.30649 62.827 8.47152 63.0713C8.59811 63.2577 8.59811 63.2577 8.72725 63.4479C8.89856 63.7014 9.06986 63.9549 9.24117 64.2084C9.32556 64.3326 9.40996 64.4569 9.49691 64.5849C9.62102 64.7678 9.62102 64.7678 9.74765 64.9544C9.99524 65.306 10.2573 65.6413 10.5241 65.9784C11.0022 66.6117 11.0849 67.0452 11.038 67.8344C10.7485 69.1188 9.74203 70.1573 8.92562 71.1523C8.5499 71.6164 8.18949 72.0902 7.83187 72.5683C7.71626 72.7228 7.60064 72.8773 7.48153 73.0365C7.27243 73.3215 7.07091 73.6121 6.87484 73.9062C10.8451 73.9062 14.8155 73.9062 18.9061 73.9062C18.9061 72.5656 18.9061 71.225 18.9061 69.8437C18.5677 69.8308 18.2293 69.8179 17.8807 69.8047C16.9377 69.7352 16.3624 69.6557 15.6248 69.0625C14.9135 68.2345 14.9059 67.5373 14.9046 66.4953C14.9022 66.3581 14.8997 66.2208 14.8972 66.0793C14.889 65.5699 14.8862 65.0603 14.8826 64.5508C14.8698 63.4099 14.8569 62.2691 14.8436 61.0937C12.2655 61.0937 9.68734 61.0937 7.03109 61.0937ZM65.1561 61.0937C65.1295 63.3655 65.1295 63.3655 65.1095 65.6373C65.1049 65.9233 65.1001 66.2093 65.095 66.4953C65.0949 66.6424 65.0947 66.7894 65.0945 66.9409C65.0752 67.8293 64.9762 68.3626 64.3748 69.0625C63.3798 69.8628 62.3423 69.7962 61.0936 69.8437C61.0936 71.1844 61.0936 72.525 61.0936 73.9062C65.0123 73.9062 68.9311 73.9062 72.9686 73.9062C72.7066 73.3823 72.4771 73.0394 72.1092 72.5976C71.4364 71.7692 70.8099 70.9145 70.1994 70.0396C69.995 69.7475 69.7872 69.4575 69.5708 69.1742C69.0586 68.4676 68.9735 67.8822 68.9899 67.0163C69.1172 66.219 69.5649 65.6981 70.0682 65.0879C70.1676 64.9606 70.2671 64.8333 70.3696 64.7021C70.5683 64.448 70.7686 64.195 70.9706 63.9435C71.3456 63.4738 71.7028 62.9928 72.0604 62.5097C72.2589 62.246 72.4574 61.9823 72.6561 61.7187C72.8108 61.5125 72.9655 61.3062 73.1248 61.0937C70.4951 61.0937 67.8655 61.0937 65.1561 61.0937Z" fill="#DFA100"/>
            <path d="M31.8556 34.6192C32.0212 34.6208 32.0212 34.6208 32.1902 34.6224C33.0937 34.6503 33.6428 34.7915 34.3751 35.3125C34.9181 35.8973 35.1746 36.2812 35.1815 37.0723C35.183 37.2101 35.1845 37.3478 35.1861 37.4897C35.1867 37.6389 35.1874 37.7882 35.1881 37.9419C35.189 38.0953 35.1899 38.2487 35.1908 38.4068C35.1923 38.732 35.1933 39.0572 35.1939 39.3824C35.1954 39.8787 35.2002 40.3748 35.2052 40.871C35.2062 41.187 35.207 41.5029 35.2076 41.8189C35.2095 41.9669 35.2115 42.1149 35.2135 42.2673C35.2107 43.0888 35.1502 43.6655 34.6876 44.375C34.3849 44.632 34.3849 44.632 34.0626 44.8145C33.9562 44.8767 33.8499 44.939 33.7403 45.0031C32.7548 45.5018 31.4331 45.4956 30.3816 45.2002C29.6044 44.8359 29.1326 44.3448 28.7372 43.5785C28.5398 42.954 28.5461 42.3713 28.5468 41.72C28.5462 41.585 28.5455 41.45 28.5448 41.3108C28.5439 41.0259 28.5438 40.7409 28.5445 40.4559C28.545 40.0221 28.5413 39.5885 28.5374 39.1547C28.537 38.877 28.5369 38.5993 28.5371 38.3216C28.5356 38.193 28.5342 38.0643 28.5327 37.9318C28.5405 36.9521 28.7158 36.2118 29.3458 35.4297C30.1359 34.7977 30.8568 34.6044 31.8556 34.6192ZM31.0938 37.5C31.0212 38.0045 31.0212 38.0045 31.0316 38.5834C31.0311 38.6888 31.0307 38.7942 31.0302 38.9027C31.0299 39.1253 31.0308 39.3479 31.0327 39.5705C31.0352 39.9104 31.0328 40.2501 31.0298 40.5899C31.0301 40.8065 31.0307 41.0231 31.0316 41.2397C31.0321 41.4363 31.0326 41.633 31.0332 41.8356C31.0968 42.3689 31.1987 42.5843 31.5626 42.9688C32.0211 42.9271 32.0211 42.9271 32.5001 42.8125C32.9976 42.0663 32.8647 41.2125 32.8619 40.34C32.8614 40.0115 32.8651 39.6831 32.869 39.3546C32.8694 39.1451 32.8695 38.9357 32.8694 38.7262C32.8698 38.5361 32.8703 38.346 32.8708 38.1501C32.8084 37.6207 32.7216 37.4011 32.3438 37.0313C31.7402 36.9257 31.451 37.0027 31.0938 37.5Z" fill="#DFA100"/>
            <path d="M42.6449 34.8658C43.3814 35.3238 43.7332 35.7517 44.0627 36.5625C44.1329 37.0799 44.1358 37.5925 44.136 38.114C44.1377 38.3365 44.1377 38.3365 44.1396 38.5635C44.1412 38.8763 44.1417 39.1891 44.141 39.5019C44.1408 39.978 44.1473 40.4536 44.1543 40.9296C44.1551 41.2346 44.1555 41.5395 44.1555 41.8445C44.1593 42.056 44.1593 42.056 44.1632 42.2718C44.1527 43.2451 43.94 43.9515 43.2815 44.6875C42.2366 45.4185 41.0824 45.4595 39.844 45.3125C38.9488 45.0989 38.3034 44.8554 37.7895 44.0556C37.5131 43.4207 37.5679 42.732 37.5735 42.0508C37.5729 41.8879 37.5723 41.725 37.5716 41.5571C37.5712 41.2136 37.5724 40.87 37.575 40.5265C37.5783 40.0017 37.575 39.4774 37.571 38.9527C37.5714 38.6182 37.5722 38.2837 37.5735 37.9493C37.5722 37.793 37.5709 37.6367 37.5696 37.4757C37.582 36.5495 37.6704 36.0213 38.2815 35.3125C39.3831 34.4169 41.3612 34.3653 42.6449 34.8658ZM40.2086 37.1955C39.8899 37.6613 39.9394 38.0642 39.938 38.6231C39.9375 38.7323 39.9371 38.8415 39.9366 38.954C39.9363 39.1846 39.9371 39.4153 39.9391 39.6459C39.9416 39.9988 39.9391 40.3515 39.9361 40.7044C39.9364 40.9286 39.937 41.1528 39.938 41.377C39.9385 41.581 39.939 41.7851 39.9396 41.9953C39.9589 42.4923 39.9589 42.4923 40.2141 42.8046C40.4732 43.004 40.4732 43.004 40.8596 42.9688C41.3827 42.7595 41.4752 42.5331 41.719 42.0313C41.7878 41.5769 41.7878 41.5769 41.7757 41.0938C41.7756 40.8279 41.7756 40.8279 41.7754 40.5567C41.7729 40.373 41.7704 40.1893 41.7678 40C41.7683 39.8163 41.7688 39.6326 41.7693 39.4434C41.7812 38.2759 41.7812 38.2759 41.4065 37.1875C40.7907 36.9745 40.7907 36.9745 40.2086 37.1955Z" fill="#DFA100"/>
            <path d="M32.3439 57.0312C32.9627 57.0312 33.5814 57.0312 34.2189 57.0312C34.7397 58.0729 35.2606 59.1146 35.7814 60.1562C35.833 59.125 35.8845 58.0938 35.9377 57.0312C36.4533 57.0312 36.9689 57.0312 37.5002 57.0312C37.7957 57.3268 37.6766 57.7569 37.6781 58.1501C37.6778 58.285 37.6775 58.4199 37.6772 58.559C37.6773 58.6967 37.6775 58.8345 37.6776 58.9764C37.6777 59.2684 37.6774 59.5604 37.6768 59.8524C37.6759 60.3003 37.6768 60.7481 37.6778 61.196C37.6777 61.4791 37.6775 61.7622 37.6772 62.0453C37.6775 62.1799 37.6778 62.3145 37.6781 62.4532C37.6744 63.4016 37.6744 63.4016 37.5002 63.75C37.2237 63.7669 36.9469 63.779 36.6701 63.7891C36.516 63.7963 36.3619 63.8036 36.2032 63.811C35.7814 63.75 35.7814 63.75 35.5104 63.4821C35.3089 63.1181 35.1532 62.7635 35.0099 62.373C34.7513 61.6688 34.4503 61.1471 34.0627 60.4688C34.0111 61.5516 33.9595 62.6344 33.9064 63.75C33.4423 63.75 32.9783 63.75 32.5002 63.75C32.3439 63.5938 32.3439 63.5938 32.3262 62.9736C32.3262 62.6967 32.3271 62.4198 32.3287 62.1429C32.3289 61.9975 32.3291 61.8521 32.3293 61.7022C32.3302 61.2357 32.3322 60.7692 32.3341 60.3027C32.3349 59.9873 32.3356 59.6718 32.3363 59.3564C32.338 58.5813 32.3407 57.8063 32.3439 57.0312Z" fill="#DFA100"/>
            <path d="M49.0625 57.0312C49.6812 57.0312 50.3 57.0312 50.9375 57.0312C51.4016 58.0109 51.8656 58.9906 52.3437 60C52.3953 59.0203 52.4469 58.0406 52.5 57.0312C53.0672 57.0312 53.6344 57.0312 54.2187 57.0312C54.2226 57.963 54.2254 58.8947 54.2273 59.8265C54.2281 60.1437 54.2292 60.4609 54.2305 60.7782C54.2324 61.2331 54.2333 61.688 54.234 62.1429C54.2348 62.2857 54.2356 62.4284 54.2365 62.5755C54.2365 62.915 54.2285 63.2544 54.2187 63.5938C54.0625 63.75 54.0625 63.75 53.6713 63.7653C53.5136 63.7634 53.3558 63.7616 53.1934 63.7598C53.0352 63.7584 52.8771 63.7569 52.7142 63.7555C52.5308 63.7528 52.5308 63.7528 52.3437 63.75C51.8229 62.7083 51.3021 61.6667 50.7812 60.625C50.7773 60.7141 50.7734 60.8032 50.7694 60.895C50.7513 61.2966 50.7321 61.6981 50.7129 62.0996C50.7037 62.31 50.7037 62.31 50.6943 62.5247C50.6877 62.6582 50.6812 62.7916 50.6744 62.9291C50.6687 63.0526 50.663 63.1762 50.6571 63.3035C50.625 63.5938 50.625 63.5938 50.4687 63.75C50.0047 63.75 49.5406 63.75 49.0625 63.75C49.0625 61.5328 49.0625 59.3156 49.0625 57.0312Z" fill="#DFA100"/>
            <path d="M25.7812 34.6875C25.7812 38.1938 25.7812 41.7 25.7812 45.3125C25.0078 45.3125 24.2344 45.3125 23.4375 45.3125C23.4375 42.786 23.4375 40.2594 23.4375 37.6563C23.1797 37.7594 22.9219 37.8625 22.6562 37.9688C22.5016 37.9688 22.3469 37.9688 22.1875 37.9688C22.1875 37.0922 22.1875 36.2157 22.1875 35.3125C23.5521 34.6608 24.128 34.6875 25.7812 34.6875Z" fill="#DFA100"/>
            <path d="M54.339 34.5654C54.5499 34.5737 54.7607 34.5885 54.9707 34.6094C55.079 34.615 55.1872 34.6207 55.2988 34.6265C55.5641 34.6411 55.8291 34.6635 56.0938 34.6875C55.9847 35.3338 55.655 35.87 55.3418 36.4355C54.9943 37.0647 54.6662 37.692 54.3805 38.3521C54.0709 39.0621 53.7046 39.7286 53.3203 40.4004C52.7364 41.4338 52.1845 42.4767 51.6701 43.5465C51.5347 43.8249 51.3924 44.1001 51.25 44.375C51.1602 44.5518 51.0703 44.7287 50.9778 44.9109C50.625 45.3125 50.625 45.3125 50.0513 45.4041C49.8387 45.3979 49.6262 45.3867 49.4141 45.3711C49.3051 45.3669 49.1961 45.3626 49.0839 45.3583C48.8161 45.3473 48.5486 45.3305 48.2812 45.3125C48.5277 44.6636 48.826 44.0465 49.1388 43.4277C49.1931 43.3197 49.2474 43.2117 49.3034 43.1005C49.483 42.7438 49.6633 42.3875 49.8438 42.0312C49.9062 41.9079 49.9687 41.7845 50.0331 41.6574C50.4306 40.8734 50.8299 40.0903 51.2303 39.3078C51.3682 39.038 51.5059 38.7681 51.6433 38.498C51.8459 38.0999 52.0493 37.7023 52.2528 37.3047C52.3132 37.1857 52.3736 37.0667 52.4358 36.9441C52.7325 36.3665 53.0399 35.7955 53.3673 35.2347C53.4561 35.0813 53.4561 35.0813 53.5468 34.9248C53.75 34.6875 53.75 34.6875 54.339 34.5654Z" fill="#DFA100"/>
            <path d="M23.2811 57.1875C23.7563 57.6074 24.1603 57.9889 24.3749 58.5938C24.3749 58.8 24.3749 59.0063 24.3749 59.2188C24.1243 59.2272 23.8736 59.2333 23.6229 59.2383C23.4833 59.2419 23.3438 59.2455 23.1999 59.2493C22.8124 59.2188 22.8124 59.2188 22.3436 58.9063C21.775 58.9558 21.775 58.9558 21.2499 59.0625C21.2373 59.4728 21.2279 59.8826 21.2206 60.293C21.2167 60.4096 21.2127 60.5262 21.2087 60.6464C21.1983 61.0254 21.1983 61.0254 21.2499 61.5625C21.6827 61.9243 21.6827 61.9243 22.1288 61.8262C22.4897 61.754 22.4897 61.754 22.6561 61.5625C22.3983 61.5109 22.1405 61.4594 21.8749 61.4063C21.8749 60.8391 21.8749 60.2719 21.8749 59.6875C22.7514 59.6875 23.628 59.6875 24.5311 59.6875C24.617 62.2064 24.617 62.2064 23.839 63.0566C23.1197 63.6864 22.5254 63.797 21.6063 63.7836C20.8703 63.7143 20.4367 63.4191 19.951 62.8809C19.4068 62.0948 19.4852 61.3847 19.4725 60.4492C19.4667 60.2897 19.4609 60.1302 19.4548 59.9658C19.4426 58.9085 19.578 58.1394 20.3124 57.3438C21.2689 56.7769 22.2845 56.6367 23.2811 57.1875Z" fill="#DFA100"/>
            <path d="M55.9375 57.0312C57.4328 57.0312 58.9281 57.0312 60.4688 57.0312C60.4688 57.5469 60.4688 58.0625 60.4688 58.5938C59.4891 58.5938 58.5094 58.5938 57.5 58.5938C57.5 58.9031 57.5 59.2125 57.5 59.5312C58.325 59.5312 59.15 59.5312 60 59.5312C60 60.0984 60 60.6656 60 61.25C59.175 61.25 58.35 61.25 57.5 61.25C57.5 61.5078 57.5 61.7656 57.5 62.0312C58.4797 62.0312 59.4594 62.0312 60.4688 62.0312C60.4688 62.5984 60.4688 63.1656 60.4688 63.75C58.9734 63.75 57.4781 63.75 55.9375 63.75C55.9375 61.5328 55.9375 59.3156 55.9375 57.0312Z" fill="#DFA100"/>
            <path d="M26.0938 57.0312C27.5891 57.0312 29.0844 57.0312 30.625 57.0312C30.625 57.5469 30.625 58.0625 30.625 58.5938C29.6453 58.5938 28.6656 58.5938 27.6562 58.5938C27.6562 58.9031 27.6562 59.2125 27.6562 59.5312C28.4813 59.5312 29.3063 59.5312 30.1562 59.5312C30.1562 60.0984 30.1562 60.6656 30.1562 61.25C29.3312 61.25 28.5062 61.25 27.6562 61.25C27.6562 61.5078 27.6562 61.7656 27.6562 62.0312C28.6359 62.0312 29.6156 62.0312 30.625 62.0312C30.625 62.5984 30.625 63.1656 30.625 63.75C29.1297 63.75 27.6344 63.75 26.0938 63.75C26.0938 61.5328 26.0938 59.3156 26.0938 57.0312Z" fill="#DFA100"/>
            <path d="M39.2189 57.0312C39.7346 57.0312 40.2502 57.0312 40.7814 57.0312C40.7845 57.1613 40.7876 57.2914 40.7908 57.4254C40.803 57.9086 40.8166 58.3916 40.831 58.8747C40.84 59.1864 40.8473 59.4981 40.8547 59.8099C40.8607 60.0058 40.8668 60.2016 40.873 60.4034C40.8779 60.5843 40.8828 60.7651 40.8879 60.9514C40.9056 61.4361 40.9056 61.4361 41.2502 61.875C41.732 61.9141 41.732 61.9141 42.1877 61.875C42.41 61.4304 42.3783 61.0372 42.3934 60.5408C42.3999 60.3373 42.4065 60.1339 42.4132 59.9243C42.4194 59.7087 42.4256 59.493 42.4318 59.2773C42.4386 59.0605 42.4454 58.8436 42.4523 58.6267C42.4689 58.0949 42.4848 57.5631 42.5002 57.0312C43.0674 57.0312 43.6346 57.0312 44.2189 57.0312C44.2306 57.701 44.2391 58.3708 44.2447 59.0406C44.247 59.2681 44.2502 59.4956 44.2543 59.723C44.26 60.0516 44.2627 60.38 44.2647 60.7086C44.2672 60.9058 44.2696 61.103 44.2722 61.3062C44.1942 62.1392 43.9802 62.7503 43.3596 63.3398C42.5889 63.8408 41.8297 63.8292 40.9377 63.75C40.3718 63.5339 39.896 63.3046 39.5314 62.8125C39.2423 62.095 39.1821 61.4945 39.1884 60.7239C39.1889 60.6177 39.1893 60.5115 39.1898 60.4021C39.1915 60.0662 39.1954 59.7304 39.1994 59.3945C39.201 59.1654 39.2024 58.9364 39.2037 58.7073C39.2071 58.1486 39.2125 57.5899 39.2189 57.0312Z" fill="#DFA100"/>
            <path d="M39.2495 57.0312C39.7651 57.0312 40.2807 57.0312 40.812 57.0312C40.8151 57.1613 40.8182 57.2914 40.8213 57.4254C40.8336 57.9086 40.8471 58.3916 40.8616 58.8747C40.8705 59.1864 40.8778 59.4981 40.8852 59.8099C40.8912 60.0058 40.8973 60.2016 40.9035 60.4034C40.9084 60.5843 40.9133 60.7651 40.9184 60.9514C40.9361 61.4361 40.9361 61.4361 41.2807 61.875C41.7625 61.9141 41.7625 61.9141 42.2182 61.875C42.4405 61.4304 42.4088 61.0372 42.4239 60.5408C42.4304 60.3373 42.437 60.1339 42.4437 59.9243C42.45 59.7087 42.4562 59.493 42.4624 59.2773C42.4691 59.0605 42.4759 58.8436 42.4828 58.6267C42.4994 58.0949 42.5154 57.5631 42.5307 57.0312C43.0979 57.0312 43.6651 57.0312 44.2495 57.0312C44.2611 57.701 44.2696 58.3708 44.2752 59.0406C44.2776 59.2681 44.2807 59.4956 44.2848 59.723C44.2906 60.0516 44.2932 60.38 44.2952 60.7086C44.2977 60.9058 44.3002 61.103 44.3027 61.3062C44.2247 62.1392 44.0107 62.7503 43.3901 63.3398C42.6194 63.8408 41.8603 63.8292 40.9682 63.75C40.4023 63.5339 39.9265 63.3046 39.562 62.8125C39.2728 62.095 39.2126 61.4945 39.2189 60.7239C39.2194 60.6177 39.2198 60.5115 39.2203 60.4021C39.222 60.0662 39.2259 59.7304 39.2299 59.3945C39.2315 59.1654 39.2329 58.9364 39.2342 58.7073C39.2376 58.1486 39.243 57.5899 39.2495 57.0312Z" fill="#DFA100"/>
            <path d="M56.5627 40.4687C57.1651 40.7807 57.4374 40.9995 57.8127 41.5625C57.8558 42.0032 57.8777 42.4203 57.8811 42.8613C57.8862 42.978 57.8914 43.0947 57.8966 43.215C57.9027 43.8415 57.8523 44.255 57.4605 44.7577C56.8713 45.305 56.415 45.4267 55.6252 45.4687C54.9386 45.3674 54.6393 45.2697 54.1604 44.7656C53.738 44.1158 53.7066 43.6123 53.6916 42.8515C53.6858 42.7415 53.6799 42.6316 53.6739 42.5183C53.6635 41.8977 53.7224 41.5163 54.1152 41.0229C54.8261 40.3433 55.6222 40.3605 56.5627 40.4687ZM55.6252 42.1875C55.2678 42.4748 55.2678 42.4748 55.2932 42.9101C55.2996 43.0326 55.3061 43.155 55.3127 43.2812C55.8726 43.4378 55.8726 43.4378 56.4065 43.2812C56.4325 42.9036 56.4325 42.9036 56.4065 42.5C56.3033 42.3968 56.2002 42.2937 56.094 42.1875C55.9393 42.1875 55.7846 42.1875 55.6252 42.1875Z" fill="#DFA100"/>
            <path d="M49.219 34.6875C49.8214 34.9994 50.0937 35.2183 50.469 35.7812C50.512 36.222 50.534 36.6391 50.5373 37.08C50.5425 37.1968 50.5476 37.3135 50.5529 37.4337C50.5589 38.0603 50.5085 38.4737 50.1168 38.9764C49.5275 39.5238 49.0713 39.6455 48.2815 39.6875C47.5948 39.5861 47.2956 39.4885 46.8166 38.9843C46.3943 38.3346 46.3629 37.831 46.3479 37.0703C46.342 36.9603 46.3362 36.8503 46.3302 36.737C46.3198 36.1164 46.3786 35.735 46.7715 35.2417C47.4824 34.562 48.2785 34.5792 49.219 34.6875ZM48.2815 36.4062C47.9241 36.6935 47.9241 36.6935 47.9494 37.1289C47.9559 37.2513 47.9623 37.3738 47.969 37.5C48.5289 37.6565 48.5289 37.6565 49.0627 37.5C49.0888 37.1224 49.0888 37.1224 49.0627 36.7187C48.9596 36.6156 48.8565 36.5125 48.7502 36.4062C48.5955 36.4062 48.4408 36.4062 48.2815 36.4062Z" fill="#DFA100"/>
            <path d="M45.6249 57.0312C46.1921 57.0312 46.7593 57.0312 47.3437 57.0312C47.3475 57.963 47.3504 58.8947 47.3523 59.8265C47.3531 60.1437 47.3541 60.4609 47.3555 60.7782C47.3574 61.2331 47.3583 61.688 47.359 62.1429C47.3598 62.2857 47.3606 62.4284 47.3614 62.5755C47.3614 62.915 47.3534 63.2544 47.3437 63.5938C47.1874 63.75 47.1874 63.75 46.8701 63.7708C46.7428 63.7703 46.6155 63.7699 46.4843 63.7695C46.357 63.7699 46.2297 63.7703 46.0986 63.7708C45.7812 63.75 45.7812 63.75 45.6249 63.5938C45.6111 63.109 45.6069 62.6277 45.6097 62.1429C45.6099 61.9975 45.6101 61.8521 45.6104 61.7022C45.6112 61.2357 45.6132 60.7692 45.6152 60.3027C45.616 59.9873 45.6167 59.6718 45.6173 59.3564C45.619 58.5813 45.6217 57.8063 45.6249 57.0312Z" fill="#DFA100"/>
        </svg>

    </defs>
</svg>
